<svg width="3840" height="2160" viewBox="0 0 3840 2160" fill="none" xmlns="http://www.w3.org/2000/svg">
<g clip-path="url(#clip0)">
<path d="M3840 0H0V2160H3840V0Z" fill="#22334B"/>
<g filter="url(#filter0_f)">
<path d="M686.933 3290.4C1528.17 3290.4 2210.13 2715 2210.13 2005.2C2210.13 1295.4 1528.17 720 686.933 720C-154.307 720 -836.267 1295.4 -836.267 2005.2C-836.267 2715 -154.307 3290.4 686.933 3290.4Z" fill="#244D5F"/>
<path d="M435.2 1670.4C1276.44 1670.4 1958.4 1095 1958.4 385.2C1958.4 -324.596 1276.44 -900 435.2 -900C-406.04 -900 -1088 -324.596 -1088 385.2C-1088 1095 -406.04 1670.4 435.2 1670.4Z" fill="#22334B"/>
<path d="M1591.47 1908C2432.71 1908 3114.67 1332.6 3114.67 622.8C3114.67 -86.9965 2432.71 -662.4 1591.47 -662.4C750.226 -662.4 68.2666 -86.9965 68.2666 622.8C68.2666 1332.6 750.226 1908 1591.47 1908Z" fill="#244D5F"/>
<path d="M3737.6 1360.8C4578.84 1360.8 5260.8 785.397 5260.8 75.6001C5260.8 -634.196 4578.84 -1209.6 3737.6 -1209.6C2896.36 -1209.6 2214.4 -634.196 2214.4 75.6001C2214.4 785.397 2896.36 1360.8 3737.6 1360.8Z" fill="#244D5F"/>
<path d="M1484.8 2721.6C2326.04 2721.6 3008 2146.2 3008 1436.4C3008 726.604 2326.04 151.2 1484.8 151.2C643.56 151.2 -38.3999 726.604 -38.3999 1436.4C-38.3999 2146.2 643.56 2721.6 1484.8 2721.6Z" fill="#22334B"/>
<path d="M3490.13 3290.4C4331.37 3290.4 5013.33 2715 5013.33 2005.2C5013.33 1295.4 4331.37 720 3490.13 720C2648.89 720 1966.93 1295.4 1966.93 2005.2C1966.93 2715 2648.89 3290.4 3490.13 3290.4Z" fill="#244D5F"/>
</g>
</g>
<defs>
<filter id="filter0_f" x="-1410" y="-1531.6" width="6992.8" height="5144" filterUnits="userSpaceOnUse" color-interpolation-filters="sRGB">
<feFlood flood-opacity="0" result="BackgroundImageFix"/>
<feBlend mode="normal" in="SourceGraphic" in2="BackgroundImageFix" result="shape"/>
<feGaussianBlur stdDeviation="161" result="effect1_foregroundBlur"/>
</filter>
<clipPath id="clip0">
<rect width="3840" height="2160" fill="white"/>
</clipPath>
</defs>
</svg>
