<svg width="3840" height="2160" viewBox="0 0 3840 2160" fill="none" xmlns="http://www.w3.org/2000/svg">
<g clip-path="url(#clip0)">
<rect width="3840" height="2160" fill="black"/>
<path d="M3840 0H0V2160H3840V0Z" fill="#22334B"/>
<g filter="url(#filter0_f)">
<path d="M1450.67 2300.4C2291.91 2300.4 2973.87 1725 2973.87 1015.2C2973.87 305.404 2291.91 -270 1450.67 -270C609.427 -270 -72.5334 305.404 -72.5334 1015.2C-72.5334 1725 609.427 2300.4 1450.67 2300.4Z" fill="#244D5F"/>
<path d="M3178.67 2170.8C4019.91 2170.8 4701.87 1595.4 4701.87 885.6C4701.87 175.804 4019.91 -399.6 3178.67 -399.6C2337.43 -399.6 1655.47 175.804 1655.47 885.6C1655.47 1595.4 2337.43 2170.8 3178.67 2170.8Z" fill="#22334B"/>
<path d="M2043.73 1724.4C2884.97 1724.4 3566.93 1149 3566.93 439.2C3566.93 -270.596 2884.97 -846 2043.73 -846C1202.49 -846 520.533 -270.596 520.533 439.2C520.533 1149 1202.49 1724.4 2043.73 1724.4Z" fill="#244D5F"/>
<path d="M2756.27 2728.8C3597.51 2728.8 4279.47 2153.4 4279.47 1443.6C4279.47 733.804 3597.51 158.4 2756.27 158.4C1915.03 158.4 1233.07 733.804 1233.07 1443.6C1233.07 2153.4 1915.03 2728.8 2756.27 2728.8Z" fill="#244D5F"/>
<path d="M128 3222C969.24 3222 1651.2 2646.6 1651.2 1936.8C1651.2 1227 969.24 651.6 128 651.6C-713.24 651.6 -1395.2 1227 -1395.2 1936.8C-1395.2 2646.6 -713.24 3222 128 3222Z" fill="#22334B"/>
<path d="M755.2 1497.6C1596.44 1497.6 2278.4 922.197 2278.4 212.4C2278.4 -497.396 1596.44 -1072.8 755.2 -1072.8C-86.0402 -1072.8 -768 -497.396 -768 212.4C-768 922.197 -86.0402 1497.6 755.2 1497.6Z" fill="#244D5F"/>
</g>
</g>
<defs>
<filter id="filter0_f" x="-1717.2" y="-1394.8" width="6741.07" height="4938.8" filterUnits="userSpaceOnUse" color-interpolation-filters="sRGB">
<feFlood flood-opacity="0" result="BackgroundImageFix"/>
<feBlend mode="normal" in="SourceGraphic" in2="BackgroundImageFix" result="shape"/>
<feGaussianBlur stdDeviation="161" result="effect1_foregroundBlur"/>
</filter>
<clipPath id="clip0">
<rect width="3840" height="2160" fill="white"/>
</clipPath>
</defs>
</svg>
