<?xml version="1.0" standalone="no"?>
<!DOCTYPE svg PUBLIC "-//W3C//DTD SVG 20010904//EN"
 "http://www.w3.org/TR/2001/REC-SVG-20010904/DTD/svg10.dtd">
<svg version="1.0" xmlns="http://www.w3.org/2000/svg"
 width="500.000000pt" height="500.000000pt" viewBox="0 0 500.000000 500.000000"
 preserveAspectRatio="xMidYMid meet">
<metadata>
Created by potrace 1.11, written by Peter Selinger 2001-2013
</metadata>
<g transform="translate(0.000000,500.000000) scale(0.100000,-0.100000)"
fill="#000000" stroke="none">
<path d="M2909 4976 c-1 -12 -1 -25 0 -30 1 -5 -6 -3 -15 5 -11 9 -15 9 -10 2
12 -21 16 -54 5 -48 -5 4 -7 11 -4 16 3 5 -1 6 -10 3 -14 -6 -12 -9 9 -23 19
-13 23 -20 14 -29 -8 -8 -5 -9 11 -5 17 4 21 1 22 -18 0 -13 3 -18 6 -11 2 6
9 12 14 12 6 0 8 -4 5 -9 -8 -12 22 -23 37 -14 7 3 4 -3 -6 -14 -16 -19 -16
-20 5 -19 13 1 26 6 31 11 4 6 5 -3 3 -18 -4 -24 -3 -27 10 -17 13 12 20 3 12
-16 -5 -10 32 -25 45 -18 8 6 8 3 -1 -9 -12 -14 -11 -16 7 -12 15 3 18 0 14
-12 -5 -12 -3 -14 7 -8 10 6 12 4 7 -8 -4 -11 -2 -14 9 -10 10 4 12 0 8 -11
-5 -12 -2 -15 10 -10 11 4 16 0 16 -14 0 -11 8 -26 17 -33 14 -12 16 -12 9 1
-4 8 -1 6 8 -4 8 -10 13 -23 10 -27 -3 -5 2 -9 11 -9 10 0 13 5 9 12 -5 7 -3
8 5 4 7 -5 10 -11 7 -14 -3 -3 1 -13 10 -23 8 -9 16 -26 17 -38 1 -11 7 -21
14 -21 6 0 15 -5 19 -12 5 -7 2 -9 -7 -4 -8 4 -5 0 5 -8 11 -9 24 -16 28 -16
5 0 4 -9 -2 -20 -9 -16 -8 -18 5 -14 10 4 15 0 15 -11 0 -9 5 -13 10 -10 6 3
10 2 10 -4 0 -5 -6 -12 -12 -14 -10 -4 -9 -6 1 -6 23 -2 61 -49 54 -68 -4 -11
-3 -14 5 -9 8 5 10 2 6 -8 -3 -9 -1 -16 4 -16 6 0 9 -9 7 -20 -5 -25 12 -27
17 -2 3 12 6 9 10 -10 3 -15 1 -25 -4 -22 -4 3 -3 -6 4 -21 7 -16 17 -24 26
-20 12 4 13 3 2 -10 -10 -12 -9 -15 6 -15 17 0 17 -1 -2 -15 -14 -11 -15 -14
-3 -9 10 3 20 0 25 -7 4 -8 3 -10 -4 -5 -8 5 -10 2 -6 -8 3 -9 10 -13 15 -10
5 3 9 0 9 -5 0 -6 -5 -11 -12 -11 -6 0 -2 -8 10 -18 15 -13 18 -22 12 -30 -6
-7 -7 -10 -4 -7 4 2 13 -2 20 -10 16 -15 19 -29 5 -20 -5 3 -13 1 -16 -5 -4
-6 -1 -9 6 -8 7 2 13 -2 14 -9 0 -6 4 -15 9 -20 5 -5 6 -2 1 6 -5 10 -4 12 3
7 9 -5 9 -13 1 -28 -7 -13 -7 -18 -1 -14 6 3 13 2 17 -4 3 -5 1 -10 -5 -10 -6
0 -8 -5 -5 -10 5 -8 12 -7 23 2 12 9 11 6 -2 -10 -17 -20 -15 -26 6 -24 3 1
12 -6 20 -15 8 -10 8 -14 1 -10 -6 4 -14 4 -17 -1 -2 -4 15 -8 39 -8 24 1 41
4 39 8 -8 12 11 9 23 -3 8 -8 13 -7 18 2 5 8 4 10 -3 5 -17 -10 -15 -1 4 14 8
8 14 9 13 4 -4 -21 2 -35 11 -29 6 4 8 10 5 15 -3 4 3 14 13 21 15 12 15 12 6
-1 -9 -11 -9 -18 1 -27 11 -10 13 -8 11 12 -2 14 -11 31 -21 39 -13 9 -15 15
-6 20 13 9 5 26 -12 26 -7 0 -6 -4 3 -11 12 -8 12 -10 1 -7 -8 2 -15 12 -17
21 -1 9 2 15 7 12 5 -4 6 1 3 9 -3 9 -10 16 -16 16 -5 0 -7 4 -4 9 8 12 -4 42
-14 36 -4 -3 -11 2 -14 11 -5 12 -2 15 11 10 15 -6 15 -5 -1 13 -10 11 -15 25
-10 32 4 8 3 10 -4 5 -8 -5 -12 0 -12 13 0 12 -6 21 -12 21 -9 0 -8 4 2 10 11
7 11 10 2 10 -7 0 -10 5 -7 10 3 6 1 10 -4 10 -6 0 -11 -5 -11 -12 0 -6 -3 -8
-6 -5 -4 4 -1 14 7 24 12 14 12 16 -1 11 -12 -5 -16 1 -14 22 1 20 -2 27 -11
24 -7 -3 -16 0 -21 7 -4 8 -3 10 4 5 7 -4 12 -1 12 9 0 9 -4 14 -9 11 -5 -3
-12 1 -15 10 -3 8 -2 12 4 9 6 -3 7 1 4 10 -4 10 -13 14 -28 10 -17 -5 -18 -4
-6 5 12 9 12 13 2 17 -10 4 -10 8 0 21 10 12 10 14 1 8 -12 -7 -18 5 -14 27 1
5 -2 6 -7 3 -4 -2 -14 -1 -22 5 -11 6 -11 9 -2 9 10 0 10 3 0 14 -7 8 -17 11
-23 8 -5 -3 -3 3 5 13 9 11 10 16 3 11 -12 -7 -18 6 -13 29 1 6 -2 7 -6 2 -9
-8 -54 31 -54 47 0 6 5 4 10 -4 7 -11 10 -12 10 -2 0 7 -7 20 -15 28 -8 9 -15
12 -15 8 0 -4 -9 5 -20 19 -11 14 -20 29 -20 33 0 5 -10 17 -23 29 -13 11 -17
16 -10 11 10 -6 12 -5 8 7 -4 8 -16 17 -27 20 -14 4 -19 11 -15 21 5 11 0 16
-14 16 -15 0 -19 5 -15 16 3 8 2 13 -2 11 -9 -6 -33 19 -25 27 4 3 1 6 -6 6
-16 0 -42 26 -34 34 4 3 1 6 -6 6 -7 0 -9 5 -5 13 5 8 2 7 -9 -2 -15 -12 -17
-12 -12 2 4 10 -4 21 -23 33 -19 11 -28 23 -25 33 4 13 3 13 -5 2 -8 -11 -11
-10 -20 4 -6 12 -16 16 -27 11 -15 -5 -16 -4 -5 9 10 13 9 15 -9 15 -11 0 -21
5 -21 11 0 5 -4 7 -10 4 -5 -3 -11 -1 -11 4 -1 6 -3 16 -4 21 -1 6 -3 13 -4
16 0 4 -8 1 -16 -6 -12 -10 -15 -9 -15 6 0 16 -2 17 -10 4 -7 -11 -10 -11 -10
-2 0 9 -13 12 -40 10 -32 -1 -40 -6 -41 -22z m761 -1120 c0 -3 -4 -8 -10 -11
-5 -3 -10 -1 -10 4 0 6 5 11 10 11 6 0 10 -2 10 -4z"/>
<path d="M1979 4783 c-1 -5 -1 -12 0 -16 1 -5 -4 -5 -11 -1 -20 13 -42 10 -56
-6 -12 -13 -13 -13 -8 4 6 16 4 17 -9 6 -8 -7 -12 -16 -9 -21 3 -5 -2 -6 -10
-3 -11 4 -16 0 -17 -12 0 -18 -1 -17 -9 1 -5 11 -9 14 -9 7 -1 -7 -6 -10 -13
-6 -8 5 -9 0 -5 -16 4 -17 3 -20 -6 -11 -13 13 -28 15 -26 4 1 -5 1 -15 0 -23
-1 -13 -2 -13 -12 0 -9 12 -10 11 -6 -6 3 -15 0 -21 -11 -20 -16 1 -76 -103
-66 -113 3 -3 9 1 14 9 7 11 10 11 10 2 0 -7 -7 -15 -16 -19 -13 -5 -13 -7 -2
-14 8 -6 9 -9 2 -9 -7 0 -15 -7 -18 -16 -5 -14 -4 -15 9 -4 13 11 15 10 12 -8
-2 -12 -7 -25 -12 -29 -4 -5 -4 -1 0 7 8 13 7 13 -8 1 -18 -14 -23 -26 -8 -16
6 3 15 -4 21 -16 7 -12 8 -19 3 -16 -5 3 -9 -3 -9 -13 0 -12 4 -16 11 -10 7 6
11 2 11 -10 0 -10 -4 -16 -8 -14 -4 3 -5 -2 -2 -10 3 -9 12 -16 20 -16 8 0 14
-5 14 -11 0 -5 -4 -8 -9 -5 -5 4 -7 -3 -4 -14 3 -11 10 -17 15 -14 5 3 9 0 7
-7 -3 -29 2 -41 15 -36 10 4 12 0 9 -14 -3 -10 0 -19 6 -19 6 0 11 -9 11 -20
0 -12 7 -20 18 -21 12 0 13 -2 3 -6 -10 -4 -5 -10 15 -19 20 -8 23 -13 11 -13
-10 -1 -15 -6 -12 -11 4 -6 11 -7 17 -4 8 5 9 1 4 -11 -6 -16 -4 -16 10 -4 15
12 16 11 9 -11 -7 -22 -6 -23 8 -12 13 11 15 9 13 -17 -2 -26 0 -28 13 -18 12
10 14 8 9 -11 -6 -20 -4 -21 10 -10 13 11 15 10 10 -10 -6 -20 -4 -22 10 -10
9 7 14 8 10 4 -4 -5 -2 -16 5 -24 10 -13 9 -14 -3 -7 -11 6 -10 3 3 -12 9 -11
14 -23 10 -28 -5 -4 -2 -5 5 -1 7 4 10 11 7 16 -3 5 -1 11 4 15 6 3 8 -6 5
-21 -3 -18 -1 -23 7 -18 9 5 10 2 6 -9 -7 -20 8 -23 17 -4 3 6 3 2 0 -10 -4
-18 0 -25 20 -33 18 -7 24 -15 21 -30 -4 -18 -2 -20 11 -9 12 10 13 9 8 -6 -6
-14 -4 -16 7 -10 11 7 11 5 -1 -10 -9 -11 -10 -16 -2 -11 11 7 17 -11 13 -37
-1 -5 3 -6 8 -2 6 3 7 13 4 23 -4 13 -2 13 10 -3 9 -12 11 -22 5 -26 -5 -4 -3
-9 6 -12 9 -4 16 -1 16 5 0 6 3 8 6 5 4 -4 1 -14 -7 -24 -12 -14 -12 -16 0 -8
11 6 13 4 7 -10 -5 -15 -4 -16 9 -5 13 11 16 11 13 -1 -2 -8 3 -13 10 -11 10
2 10 -2 2 -18 -7 -13 -7 -20 0 -20 5 0 10 5 10 10 0 6 4 10 8 10 13 0 10 -30
-2 -31 -6 0 0 -5 13 -10 19 -7 21 -12 12 -23 -10 -12 -8 -14 11 -9 16 3 19 2
10 -5 -11 -7 -11 -10 2 -15 8 -3 17 -1 20 6 3 7 4 3 1 -9 -6 -22 17 -50 33
-40 5 3 8 -6 6 -20 -2 -18 2 -24 14 -22 10 2 16 -3 15 -9 -2 -7 2 -13 8 -13 8
0 7 -6 -2 -17 -8 -9 -9 -14 -3 -10 14 8 49 -17 49 -35 1 -7 7 -12 13 -10 10 2
10 -3 2 -18 -6 -11 -7 -20 -3 -19 24 4 35 -4 49 -36 8 -19 19 -35 24 -35 6 0
9 -5 7 -12 -1 -7 4 -12 12 -13 8 0 17 -9 22 -20 4 -11 8 -14 8 -6 1 8 4 12 7
9 3 -4 1 -15 -5 -27 -8 -14 -8 -22 1 -27 7 -5 8 -3 3 5 -5 9 -2 12 11 9 11 -2
18 -10 16 -17 -1 -6 4 -19 13 -27 10 -11 15 -12 15 -3 0 7 3 9 6 6 4 -4 1 -14
-7 -24 -9 -11 -10 -14 -1 -9 7 4 12 2 12 -4 0 -7 7 -9 16 -6 12 4 15 2 10 -9
-3 -8 -1 -15 4 -15 6 0 10 -5 10 -11 0 -5 -5 -7 -12 -3 -7 4 -8 3 -4 -4 4 -6
14 -8 23 -5 12 5 15 2 10 -10 -3 -9 -2 -18 3 -18 9 -1 18 -3 35 -8 2 0 0 -13
-6 -27 -8 -24 -8 -25 6 -14 12 10 15 10 15 -4 0 -10 5 -14 10 -11 6 3 10 1 10
-4 0 -6 -5 -11 -11 -11 -5 0 -7 -5 -4 -10 4 -6 12 -8 18 -4 7 3 5 0 -4 -8 -9
-7 -14 -18 -12 -24 2 -6 -3 -11 -11 -11 -8 0 -13 4 -10 9 3 4 -2 8 -11 8 -9 0
-14 4 -11 9 7 11 -22 23 -36 14 -7 -3 -8 -1 -4 5 4 7 2 12 -5 12 -8 0 -7 5 2
17 8 10 9 14 2 10 -7 -4 -18 2 -27 15 -9 12 -16 18 -16 12 0 -5 6 -16 13 -23
10 -10 9 -11 -5 -6 -16 6 -23 24 -19 48 1 4 -5 7 -13 5 -8 -2 -15 2 -16 7 -1
6 -8 14 -16 18 -8 4 -14 15 -14 23 0 8 -4 12 -10 9 -5 -3 -10 3 -10 14 0 11
-5 23 -12 27 -8 5 -9 2 -4 -11 5 -15 4 -16 -9 -5 -8 7 -12 16 -10 21 3 4 -8
23 -26 41 -17 18 -28 26 -24 18 4 -8 0 -6 -9 4 -8 10 -13 24 -9 29 4 6 0 8
-10 4 -9 -3 -19 -1 -23 5 -4 7 -3 8 4 4 7 -4 12 -2 12 3 0 6 -5 11 -11 11 -5
0 -7 6 -3 13 5 7 0 6 -11 -3 -11 -9 -16 -10 -11 -2 4 7 2 12 -4 12 -6 0 -9 4
-5 9 3 6 -13 29 -35 52 -22 23 -40 46 -40 51 0 5 -4 6 -10 3 -9 -6 -14 8 -11
28 1 5 -7 6 -17 3 -12 -4 -19 -1 -19 8 0 9 5 13 11 10 6 -3 3 1 -6 9 -10 8
-17 16 -15 18 1 2 -2 1 -7 -3 -6 -5 -15 -8 -20 -8 -6 0 -4 5 4 10 11 7 11 10
2 10 -7 0 -10 5 -7 10 3 6 -2 10 -12 10 -15 0 -16 2 -3 10 12 8 11 10 -7 10
-13 0 -22 3 -22 8 1 4 1 13 0 21 -1 11 -4 11 -18 0 -15 -13 -15 -12 -5 8 9 16
9 24 0 29 -7 4 -8 3 -4 -4 4 -7 5 -12 1 -12 -3 0 -10 11 -15 25 -5 14 -16 25
-25 25 -8 0 -15 7 -15 16 0 8 -4 12 -10 9 -5 -3 -10 1 -10 10 0 9 -4 14 -9 11
-11 -7 -23 22 -14 37 4 6 0 8 -10 4 -9 -3 -18 0 -21 9 -4 10 -2 12 6 8 7 -5 8
-3 4 5 -5 7 -14 10 -21 8 -8 -4 -11 3 -9 19 2 20 0 22 -17 14 -15 -9 -17 -8
-12 6 4 12 3 15 -5 10 -7 -4 -12 -1 -12 8 0 8 3 16 8 19 4 2 3 3 -3 2 -10 -2
-45 30 -45 40 0 3 -3 4 -6 3 -7 -3 -39 54 -36 64 1 4 -6 4 -15 1 -11 -5 -14
-3 -8 6 6 10 2 11 -16 6 -24 -7 -24 -7 -4 10 20 16 20 16 -1 12 -17 -3 -20 0
-17 13 3 11 -6 25 -22 38 -17 14 -24 26 -19 34 6 9 3 9 -9 -1 -16 -12 -17 -12
-10 5 6 16 5 17 -9 6 -14 -11 -16 -10 -11 6 3 15 -2 22 -19 28 -22 7 -22 7 -3
15 16 6 17 8 3 8 -20 1 -41 34 -30 47 4 5 0 3 -9 -4 -13 -10 -18 -8 -27 14 -8
16 -17 22 -25 18 -8 -5 -7 -2 2 9 12 15 12 17 -4 11 -14 -6 -16 -3 -10 17 4
16 3 20 -3 11 -7 -10 -12 -6 -22 17 -6 17 -17 29 -24 28 -6 -1 -10 4 -8 11 1
6 -2 12 -7 12 -5 0 -12 -6 -15 -12 -3 -7 -4 -4 -1 7 2 11 0 27 -6 35 -9 12
-10 12 -5 -4 5 -15 4 -17 -7 -8 -8 7 -18 8 -23 4 -4 -4 -2 2 6 12 10 13 10 17
3 12 -12 -7 -17 4 -14 29 1 6 -6 1 -15 -10 -16 -20 -16 -20 -11 2 3 13 0 26
-5 30 -7 3 -8 1 -4 -5 4 -7 2 -12 -3 -12 -6 0 -11 5 -11 11 0 5 -5 7 -12 3 -6
-4 -8 -3 -4 4 8 14 -21 42 -45 42 -10 0 -19 4 -19 10 0 5 -7 7 -15 4 -12 -5
-14 -2 -8 12 6 17 5 17 -10 5 -11 -8 -17 -9 -17 -3 0 7 -7 9 -17 5 -10 -4 -14
-2 -10 4 3 5 0 10 -8 10 -8 0 -12 -5 -9 -11 3 -6 -2 -2 -10 8 -12 15 -16 16
-16 5 0 -12 -2 -12 -10 1 -9 13 -10 13 -10 0 0 -12 -2 -13 -9 -1 -7 11 -9 11
-14 0 -5 -12 -7 -12 -15 0 -9 12 -13 12 -26 2 -9 -8 -28 -11 -43 -8 -27 5 -27
4 -8 -10 19 -15 19 -15 -8 -10 -15 2 -30 0 -33 -5 -3 -5 -12 -7 -18 -5 -7 3
-13 -1 -13 -9 0 -12 5 -11 26 2 l26 15 -24 -20 c-13 -12 -32 -21 -42 -21 -11
0 -19 -7 -19 -16 0 -14 -2 -15 -17 -3 -13 11 -15 11 -9 1 5 -8 1 -21 -10 -33
-17 -19 -17 -20 2 -14 10 4 7 -1 -8 -10 -16 -8 -28 -23 -28 -31 0 -9 5 -12 12
-8 7 5 8 3 4 -5 -5 -7 -14 -10 -22 -7 -7 3 -16 1 -19 -5 -4 -5 -3 -9 2 -8 20
3 34 -2 28 -11 -4 -6 -11 -7 -17 -4 -6 4 -6 -2 1 -15 10 -18 9 -21 -6 -22 -16
0 -15 -1 2 -9 18 -7 18 -9 3 -15 -14 -5 -15 -10 -5 -20 7 -7 15 -11 19 -8 4 2
5 -3 2 -11 -3 -9 -11 -13 -17 -9 -6 3 -7 1 -3 -5 4 -7 15 -12 24 -13 10 0 12
-3 5 -5 -7 -3 -9 -12 -6 -21 5 -12 3 -14 -7 -8 -8 5 -11 4 -6 -3 4 -6 14 -8
24 -5 14 5 14 3 -3 -17 l-20 -23 24 13 c13 6 21 8 18 3 -3 -5 0 -21 8 -36 12
-23 11 -25 -3 -20 -11 3 -7 -4 8 -18 14 -13 20 -20 13 -15 -10 6 -12 4 -7 -8
3 -9 13 -16 21 -16 13 0 13 -3 3 -15 -7 -9 -10 -18 -6 -22 3 -3 6 -1 6 6 0 7
5 9 10 6 6 -4 8 -10 5 -14 -7 -12 32 -44 44 -36 7 3 8 0 5 -9 -4 -9 -1 -16 6
-16 7 0 10 -7 6 -16 -5 -12 -2 -15 9 -10 11 4 15 0 13 -12 -2 -10 2 -16 11
-14 8 2 11 -3 8 -12 -4 -9 -3 -15 1 -15 25 4 34 -3 29 -22 -4 -16 -3 -18 9 -8
11 9 14 9 14 0 0 -7 5 -9 13 -5 9 6 9 5 0 -8 -15 -17 -7 -29 13 -21 8 3 14 2
13 -3 -4 -26 2 -36 22 -31 14 4 18 2 11 -6 -6 -8 1 -22 21 -42 17 -16 27 -24
23 -18 -5 9 -2 11 9 7 12 -5 13 -10 4 -20 -9 -11 -7 -15 7 -21 27 -10 44 -29
44 -50 0 -15 2 -16 11 -3 9 12 10 10 6 -8 -4 -18 -3 -21 7 -12 10 7 17 6 27
-7 9 -11 10 -14 2 -9 -7 4 -13 3 -13 -3 0 -5 9 -13 21 -16 15 -5 19 -13 16
-27 -3 -11 -3 -17 0 -14 3 3 12 -2 20 -12 13 -15 13 -14 3 6 -7 13 -10 26 -7
28 2 3 10 -9 17 -26 7 -16 16 -30 21 -30 5 0 14 -11 19 -25 5 -14 14 -25 19
-25 6 0 8 -6 5 -14 -3 -9 1 -13 13 -13 10 1 17 -4 16 -10 -2 -7 3 -13 11 -13
8 0 18 -5 22 -12 4 -7 3 -8 -4 -4 -7 4 -12 3 -12 -3 0 -10 39 -27 53 -23 5 1
6 -1 3 -6 -3 -5 1 -20 9 -35 7 -14 10 -29 7 -33 -4 -4 -1 -4 6 0 10 6 11 11 0
24 -7 10 2 4 19 -13 18 -17 28 -35 25 -44 -4 -11 0 -13 16 -9 14 4 20 2 15 -4
-3 -6 2 -17 12 -25 14 -9 15 -13 4 -13 -12 0 -12 -2 1 -10 9 -6 20 -5 30 3 13
10 13 10 2 -5 -11 -13 -11 -21 -2 -35 11 -17 11 -17 6 2 -6 19 -5 19 7 3 8
-10 18 -14 23 -10 4 4 2 -1 -5 -10 -10 -13 -10 -18 -2 -18 7 0 9 -4 6 -10 -3
-6 1 -7 9 -4 11 4 16 0 16 -10 0 -9 5 -16 11 -16 5 0 7 5 3 12 -4 6 -3 8 4 5
5 -4 8 -16 5 -27 -5 -19 5 -25 31 -21 5 1 6 -6 2 -15 -4 -11 -2 -15 8 -11 10
4 13 1 9 -9 -4 -10 0 -12 11 -8 12 5 15 2 10 -10 -3 -9 -1 -16 6 -16 6 0 8 -4
5 -10 -9 -14 9 -12 24 2 10 11 10 8 2 -15 -7 -18 -7 -26 -1 -22 6 3 10 1 10
-5 0 -6 4 -8 10 -5 9 6 14 -8 11 -28 -1 -5 9 -5 21 -1 20 6 21 5 9 -9 -11 -15
-10 -18 13 -27 15 -5 29 -16 32 -25 3 -8 11 -12 18 -8 6 4 5 -1 -3 -10 -12
-15 -11 -17 4 -17 11 0 15 -5 12 -14 -4 -10 0 -13 14 -11 17 3 19 0 13 -18 -6
-20 -5 -21 11 -7 12 10 16 10 11 2 -5 -8 2 -23 20 -40 15 -15 24 -20 19 -12
-8 13 -7 13 9 1 10 -8 15 -23 13 -33 -3 -10 0 -21 5 -25 7 -3 8 -1 4 5 -11 19
3 14 27 -9 21 -19 21 -20 2 -14 -16 4 -15 3 3 -6 12 -7 22 -16 22 -22 0 -5 8
-6 17 -3 14 6 14 3 -3 -15 -18 -21 -18 -22 0 -16 24 9 46 -9 46 -39 0 -13 5
-24 11 -24 5 0 7 5 4 10 -3 6 -1 10 5 10 7 0 10 -7 7 -15 -4 -8 -2 -17 4 -21
6 -3 8 -12 5 -19 -2 -7 1 -18 7 -25 9 -10 9 -11 -1 -6 -7 4 -20 2 -29 -6 -12
-9 -15 -9 -9 0 5 8 -1 12 -18 12 -14 0 -26 5 -26 11 0 5 4 7 10 4 6 -3 7 1 3
10 -4 12 -8 13 -13 5 -4 -7 -13 -9 -19 -6 -6 4 -8 12 -5 18 4 7 2 8 -5 4 -13
-8 -41 10 -41 27 0 6 7 2 16 -9 14 -18 15 -18 4 4 -7 15 -17 21 -27 18 -11 -5
-13 -2 -9 9 3 9 2 14 -2 11 -5 -3 -14 4 -22 14 -8 10 -17 17 -22 14 -4 -3 -8
2 -8 11 0 10 -5 13 -12 9 -8 -5 -7 0 2 11 14 17 13 17 -8 10 -22 -6 -23 -5
-12 15 11 20 10 21 -10 10 -14 -7 -20 -8 -16 -2 4 6 -1 15 -10 20 -11 6 -13
11 -5 16 6 4 11 13 11 19 0 7 -4 6 -11 -3 -8 -12 -12 -12 -16 -2 -4 10 -8 10
-19 1 -12 -10 -13 -8 -5 14 6 15 7 26 3 26 -20 -3 -33 2 -27 11 4 6 -1 7 -12
3 -16 -6 -17 -5 -3 12 8 10 10 16 3 12 -6 -4 -18 -1 -26 7 -8 8 -18 12 -22 8
-4 -4 -4 3 -1 15 6 20 4 21 -21 17 -27 -5 -27 -5 -8 11 11 9 14 14 7 10 -6 -3
-15 1 -18 9 -3 8 -14 18 -25 21 -10 4 -19 15 -19 25 0 20 -26 39 -48 34 -7 -1
-8 0 -3 2 14 7 2 34 -15 34 -8 0 -15 5 -15 10 -1 6 -2 16 -3 23 -1 6 -9 11
-18 9 -14 -2 -32 29 -29 50 0 4 -6 5 -14 2 -9 -4 -15 0 -15 9 0 9 -9 18 -19
22 -13 4 -18 12 -14 22 4 11 2 14 -5 9 -7 -4 -20 -2 -29 4 -16 10 -16 11 2 6
20 -6 20 -6 1 9 -11 8 -25 15 -30 15 -6 0 -5 4 3 9 11 7 9 10 -8 16 -12 3 -19
11 -16 16 4 5 1 9 -5 9 -6 0 -23 11 -37 24 -15 14 -31 22 -37 19 -6 -3 -5 0 1
7 10 11 5 21 -27 53 -22 21 -40 43 -40 48 0 6 -5 7 -12 3 -7 -5 -9 -2 -5 9 4
12 2 14 -10 10 -13 -5 -15 -2 -10 11 4 9 3 15 -2 11 -6 -3 -14 3 -20 12 -6 10
-11 13 -11 8 0 -6 6 -17 13 -25 10 -12 9 -12 -6 0 -11 8 -16 21 -13 32 4 16 2
17 -10 7 -8 -7 -14 -8 -13 -3 4 21 -2 35 -11 29 -10 -6 -14 7 -11 33 1 6 -3
12 -9 12 -6 0 -8 -4 -5 -10 10 -17 -12 -11 -26 7 -12 14 -12 16 1 9 9 -4 8 -2
-2 7 -10 8 -15 17 -11 20 3 4 -4 7 -16 7 -12 0 -19 4 -16 10 3 6 1 10 -5 10
-6 0 -8 5 -4 12 5 8 2 9 -10 5 -14 -6 -17 -3 -12 9 6 15 4 15 -11 3 -10 -7
-15 -10 -11 -5 11 13 -37 58 -65 59 -14 1 -23 5 -20 10 2 4 -1 7 -6 7 -6 0
-11 7 -11 15 0 9 -6 12 -16 8 -9 -3 -21 3 -31 16 -11 17 -18 19 -28 11 -10 -8
-14 -7 -18 7 -4 16 -5 16 -6 -1 -1 -20 -1 -20 -17 0 -8 10 -13 14 -10 7 7 -13
-19 -12 -31 2 -4 4 -2 5 6 0 9 -5 12 -4 7 3 -9 15 -38 3 -29 -12 3 -6 -3 -2
-16 8 -17 16 -24 17 -34 7 -9 -10 -8 -11 6 -6 9 4 17 3 17 -3 0 -6 -12 -9 -26
-6 -19 3 -24 1 -18 -8 6 -10 3 -9 -9 1 -14 11 -20 11 -32 1 -8 -7 -12 -17 -8
-23 3 -6 1 -7 -5 -3 -6 4 -9 14 -6 24 5 15 4 15 -6 -1 -6 -9 -15 -15 -20 -12
-5 3 -12 0 -16 -6 -4 -7 -3 -9 4 -5 6 3 13 2 16 -3 4 -5 -5 -8 -19 -7 -13 2
-22 -1 -19 -5 3 -5 -2 -12 -10 -15 -9 -3 -14 -10 -11 -14 3 -5 1 -11 -5 -15
-5 -3 -10 -1 -10 4 0 6 -5 11 -10 11 -7 0 -7 -6 0 -19 7 -14 7 -22 -2 -27 -7
-4 -8 -3 -4 4 4 7 5 12 2 12 -3 0 -10 -10 -17 -21 -9 -17 -8 -20 3 -14 7 3 5
0 -4 -8 -21 -16 -24 -32 -5 -21 8 5 8 2 -2 -9 -7 -9 -10 -17 -5 -17 4 0 3 -5
-4 -12 -16 -16 -15 -31 0 -22 7 4 2 -5 -12 -21 -14 -16 -19 -25 -11 -20 11 6
13 4 8 -9 -4 -11 -3 -15 4 -10 8 4 9 -1 4 -16 -5 -17 -4 -21 6 -15 11 6 12 5
2 -6 -15 -15 -17 -33 -3 -24 5 3 9 -5 8 -17 -2 -40 2 -48 19 -48 13 0 14 -3 5
-12 -7 -7 -12 -17 -12 -22 0 -6 4 -5 9 2 6 10 10 7 15 -12 4 -15 11 -24 16
-21 6 4 7 -1 3 -11 -4 -12 -3 -15 6 -10 8 6 11 2 9 -10 -2 -11 3 -19 12 -19 8
0 16 -9 18 -20 3 -11 11 -24 18 -28 8 -5 12 -13 8 -19 -4 -7 0 -7 13 0 15 9
20 8 20 -3 0 -8 -5 -11 -10 -8 -6 3 -7 1 -3 -5 4 -7 12 -12 17 -12 16 0 36
-24 32 -37 -3 -7 6 -10 22 -9 14 2 23 1 20 -2 -3 -3 7 -19 22 -36 l28 -31 -35
30 c-19 17 -29 23 -22 14 6 -9 8 -20 4 -24 -4 -5 -2 -5 5 -1 7 4 18 -2 24 -13
7 -10 19 -17 26 -14 7 3 13 0 13 -7 0 -6 5 -8 13 -4 7 5 6 0 -3 -11 -9 -11
-10 -16 -2 -11 6 4 12 2 12 -3 0 -6 6 -11 14 -11 8 0 17 -7 20 -16 6 -15 4
-15 -11 -3 -16 13 -17 12 -4 -3 7 -10 21 -18 31 -18 10 0 21 -7 24 -16 6 -15
4 -15 -11 -3 -16 13 -17 12 -4 -3 7 -10 18 -18 23 -18 15 0 39 -28 41 -48 1
-14 7 -18 21 -14 15 4 18 1 13 -11 -3 -9 -1 -19 5 -23 7 -4 8 -3 4 4 -4 7 -2
12 3 12 6 0 11 -10 11 -22 0 -19 2 -20 10 -8 6 9 10 10 10 3 0 -7 11 -24 25
-39 13 -14 22 -30 20 -34 -3 -5 5 -6 17 -2 21 5 22 4 8 -13 -9 -11 -10 -16 -2
-11 6 4 12 2 12 -3 0 -6 7 -11 16 -11 10 0 14 -5 10 -16 -3 -8 -2 -12 4 -9 6
3 10 1 10 -5 0 -6 5 -8 10 -5 5 3 10 1 10 -4 0 -6 -5 -11 -12 -11 -6 0 -8 -3
-5 -6 4 -4 14 -1 24 7 9 8 14 9 10 2 -4 -6 -3 -14 3 -18 6 -4 8 -11 5 -16 -3
-5 0 -6 8 -4 14 6 43 -21 49 -45 5 -25 22 -39 30 -26 5 6 8 2 8 -11 0 -21 10
-28 34 -24 5 1 4 -5 -3 -13 -11 -13 -10 -15 8 -11 12 2 19 0 16 -5 -3 -6 -2
-17 3 -26 6 -11 11 -13 16 -5 4 6 12 11 18 11 7 0 6 -5 -1 -14 -13 -16 2 -32
19 -21 6 4 10 3 9 -2 -4 -16 14 -43 28 -43 9 0 13 -6 10 -14 -6 -15 22 -46 42
-46 7 0 9 -5 5 -12 -5 -8 -2 -9 9 -5 11 4 22 -3 34 -24 10 -17 23 -27 31 -24
7 2 11 1 8 -4 -3 -4 3 -16 14 -26 11 -10 17 -21 15 -26 -3 -4 -1 -10 5 -14 6
-4 7 -12 4 -18 -5 -8 -3 -8 7 1 13 12 38 18 27 6 -9 -8 31 -46 42 -39 5 3 7
-3 5 -14 -2 -12 3 -21 16 -24 10 -3 19 -10 19 -17 0 -6 -5 -8 -12 -4 -7 4 -8
3 -4 -5 6 -9 11 -9 24 1 9 7 13 8 9 2 -4 -7 2 -14 13 -17 14 -4 18 -10 13 -23
-5 -13 -3 -16 9 -11 9 3 23 -2 31 -11 15 -17 17 -21 17 -42 0 -5 5 -10 11 -10
5 0 7 6 3 13 -4 7 -3 9 2 4 5 -5 9 -14 9 -20 1 -7 6 -11 13 -10 7 2 9 -4 5
-15 -6 -15 -4 -15 9 -4 14 11 16 10 14 -11 -3 -21 1 -24 20 -22 17 1 21 -2 19
-16 -2 -11 0 -19 6 -19 5 0 9 -5 9 -12 0 -6 -3 -8 -7 -5 -3 4 -13 1 -21 -6
-13 -9 -14 -9 -8 1 4 6 3 12 -3 12 -5 0 -13 -5 -16 -11 -9 -13 -45 22 -37 35
3 5 -2 7 -11 3 -11 -4 -17 -1 -17 8 0 8 -7 15 -16 15 -8 0 -12 5 -9 10 3 6 -3
10 -14 10 -12 0 -21 5 -21 11 0 5 -5 7 -12 3 -7 -4 -8 -3 -4 5 11 17 -14 43
-33 36 -8 -3 -12 -3 -8 1 10 10 -13 35 -26 27 -6 -4 -8 0 -4 9 8 22 -3 30 -20
16 -11 -9 -13 -8 -11 2 2 8 -4 14 -12 15 -9 0 -14 8 -12 19 2 12 -1 16 -9 10
-9 -5 -10 -2 -6 9 4 11 2 14 -9 10 -7 -3 -14 0 -14 7 0 6 -5 8 -12 4 -10 -6
-10 -5 -1 7 10 12 8 15 -13 17 -17 1 -23 -2 -18 -10 4 -7 3 -8 -5 -4 -9 6 -9
11 -1 21 8 9 8 15 0 20 -6 3 -7 11 -4 17 4 7 2 8 -5 4 -6 -4 -9 -12 -5 -17 3
-6 -3 -5 -15 3 -12 7 -21 21 -21 32 0 11 -3 16 -7 12 -4 -3 -13 4 -20 16 -7
13 -12 17 -13 11 0 -21 -16 -15 -30 12 -7 13 -18 21 -24 18 -6 -4 -5 0 2 9 12
14 10 16 -10 10 -21 -5 -22 -4 -8 14 8 10 10 16 6 12 -5 -4 -15 0 -23 10 -10
11 -12 12 -8 2 4 -8 -2 -4 -13 10 -11 13 -18 28 -15 32 2 5 1 8 -4 7 -4 -1
-21 4 -38 11 -16 7 -34 12 -38 11 -5 -1 -6 3 -2 9 3 6 10 8 15 5 5 -3 11 -1
14 4 3 5 -9 8 -28 7 -31 -1 -33 1 -24 18 6 10 6 16 1 13 -6 -4 -16 4 -22 17
-9 16 -20 22 -37 20 -20 -2 -23 0 -14 11 9 10 7 16 -7 23 -10 5 -24 7 -32 4
-8 -3 -11 0 -7 7 6 10 3 12 -19 11 -3 0 -11 4 -18 10 -6 6 -21 18 -32 26 -11
9 -14 12 -6 8 10 -5 12 -3 6 6 -6 10 -11 10 -20 -4 -11 -15 -13 -15 -19 -1 -3
8 -17 20 -31 25 -15 6 -24 14 -21 19 7 11 -20 8 -31 -3 -4 -4 -3 -6 2 -4 6 2
11 0 13 -4 6 -19 1 -20 -18 -3 -11 10 -17 22 -13 28 3 6 1 7 -6 3 -6 -4 -9
-12 -6 -17 4 -5 2 -9 -4 -9 -5 0 -11 6 -14 13 -3 9 -7 9 -20 -2 -14 -11 -17
-11 -18 0 0 8 -4 5 -9 -6 -6 -15 -9 -16 -9 -4 -1 9 -7 16 -15 16 -8 0 -12 -6
-9 -13 2 -6 -1 -15 -8 -20 -8 -4 -10 -3 -5 4 13 22 -13 12 -30 -10 -11 -15
-14 -17 -11 -6 4 10 2 20 -4 23 -5 4 -8 1 -7 -7 2 -7 -3 -12 -11 -10 -8 2 -11
-3 -8 -12 3 -8 -1 -17 -9 -20 -24 -9 -31 -7 -14 4 8 5 10 10 4 10 -18 0 -25
-12 -14 -25 8 -9 4 -12 -15 -10 -14 2 -23 -1 -19 -6 3 -5 10 -7 15 -4 5 4 9 4
9 0 0 -3 -11 -10 -25 -15 -15 -6 -23 -15 -19 -24 3 -8 0 -17 -7 -22 -8 -5 -10
-3 -4 7 7 12 5 12 -6 1 -12 -11 -12 -14 1 -22 10 -6 11 -10 3 -10 -7 0 -10 -7
-6 -16 4 -11 -1 -23 -13 -32 -15 -11 -15 -13 -2 -9 9 3 19 0 22 -8 3 -10 0
-12 -12 -8 -16 6 -16 5 0 -13 14 -16 15 -23 6 -32 -9 -9 -9 -12 0 -12 7 0 11
-3 11 -7 -4 -25 2 -53 11 -48 6 4 10 -5 10 -19 0 -27 14 -35 24 -13 3 6 3 2 0
-10 -3 -14 -1 -23 7 -23 8 0 8 -5 -2 -17 -8 -9 -9 -14 -3 -10 6 3 16 -3 24
-13 8 -10 17 -17 22 -14 12 7 5 -19 -7 -29 -5 -5 1 -5 14 -2 16 5 21 4 17 -4
-4 -6 0 -11 8 -11 9 0 16 -5 16 -11 0 -5 -4 -7 -10 -4 -5 3 -7 0 -4 -8 6 -16
20 -17 42 -4 6 5 12 4 12 -2 0 -5 -6 -12 -12 -15 -10 -5 -10 -7 0 -12 6 -3 10
-10 6 -15 -3 -5 -2 -9 3 -8 4 1 17 1 28 0 17 -1 18 -3 5 -12 -12 -9 -11 -10 7
-6 12 3 22 2 21 -2 -3 -26 5 -41 21 -41 11 0 23 -12 31 -30 7 -16 19 -35 28
-42 12 -10 14 -10 8 0 -4 6 -3 12 2 12 5 0 15 -14 22 -30 7 -17 15 -29 17 -26
3 2 0 15 -7 28 -11 22 -10 22 4 3 29 -38 37 -45 45 -41 4 3 8 -1 8 -9 0 -12
-3 -12 -16 -2 -14 11 -14 10 -2 -6 8 -10 20 -16 27 -13 8 3 13 2 13 -2 -3 -19
2 -25 11 -12 8 12 10 11 10 -7 0 -13 6 -23 13 -23 6 0 26 -12 42 -26 27 -22
27 -23 3 -9 -20 12 -28 13 -34 4 -4 -7 -3 -9 4 -5 6 3 17 -1 25 -9 9 -8 23
-15 31 -15 9 0 16 -5 16 -11 0 -5 -5 -7 -12 -3 -7 4 -8 3 -4 -5 4 -6 12 -9 17
-6 5 4 9 1 9 -4 0 -6 5 -11 11 -11 5 0 7 6 3 13 -4 7 -3 9 2 4 5 -5 10 -13 10
-18 1 -5 2 -13 3 -19 0 -5 7 -7 15 -4 15 6 40 -29 29 -40 -3 -3 8 -9 25 -12
18 -4 29 -10 26 -15 -3 -5 2 -12 11 -15 8 -4 23 -18 31 -33 8 -14 13 -18 10
-8 -3 11 -2 15 4 12 6 -3 10 -13 10 -21 0 -9 5 -12 12 -8 6 4 8 3 4 -4 -9 -14
32 -52 50 -45 8 3 14 1 14 -5 0 -6 -6 -13 -12 -15 -7 -3 -1 -6 15 -6 15 -1 28
-5 28 -11 1 -5 2 -16 3 -22 0 -7 6 -13 11 -13 29 -2 54 -17 48 -31 -4 -10 0
-12 13 -7 13 5 16 3 12 -9 -9 -22 12 -41 29 -26 8 6 13 7 12 2 -3 -19 3 -49 8
-36 2 6 9 12 14 12 4 0 6 -6 3 -13 -2 -7 3 -21 11 -32 16 -19 16 -19 5 3 -6
12 -7 22 -2 22 5 0 14 -12 21 -26 8 -18 17 -24 28 -20 14 6 14 4 2 -11 -7 -10
-10 -15 -5 -11 5 4 15 0 23 -8 9 -8 21 -13 28 -10 8 3 12 -4 11 -17 -1 -16 4
-21 17 -19 13 2 17 -2 15 -15 -2 -10 2 -18 7 -18 18 0 55 -32 47 -41 -4 -4 1
-2 11 6 15 11 18 11 15 0 -2 -8 4 -15 12 -15 8 0 14 -6 13 -13 -2 -7 2 -12 8
-12 5 0 7 -5 3 -12 -5 -8 0 -9 15 -5 17 4 20 2 12 -7 -14 -16 6 -37 27 -28 11
4 14 1 9 -11 -4 -12 -2 -14 10 -10 11 4 14 2 9 -5 -5 -8 -1 -10 11 -5 16 6 17
5 3 -12 -14 -17 -14 -18 10 -5 24 13 24 12 10 -6 -8 -10 -10 -16 -6 -12 5 4
17 -1 27 -13 13 -15 19 -17 23 -7 3 7 4 3 2 -10 -2 -12 0 -20 4 -17 5 3 15 2
24 -1 13 -5 14 -9 5 -20 -7 -8 -9 -17 -5 -21 3 -3 6 -1 6 5 0 18 22 14 50 -9
14 -11 19 -18 13 -14 -7 3 -13 1 -13 -6 0 -7 8 -9 21 -6 16 4 18 3 9 -7 -8
-10 -5 -13 12 -12 14 0 22 -4 21 -11 -2 -7 2 -13 8 -13 5 0 7 -5 3 -12 -5 -8
0 -9 15 -5 19 5 21 2 15 -16 -6 -18 -5 -20 8 -10 12 10 19 8 37 -11 13 -14 20
-29 17 -35 -5 -7 -1 -8 10 -4 13 5 16 2 12 -9 -4 -8 -1 -15 8 -15 7 0 10 5 7
11 -3 6 0 5 8 -2 12 -11 12 -14 -1 -23 -13 -9 -13 -10 0 -7 20 6 56 -14 80
-45 12 -15 27 -24 35 -20 8 3 15 0 15 -7 0 -6 5 -8 13 -4 7 5 6 0 -3 -11 -9
-11 -10 -16 -2 -11 7 4 12 2 12 -6 0 -9 2 -10 8 -2 5 9 11 8 20 -2 10 -10 10
-14 1 -14 -7 0 -9 -3 -6 -6 4 -4 13 -2 20 4 17 15 28 5 19 -16 -5 -15 -3 -15
11 -4 14 12 16 11 12 -7 -4 -22 9 -29 20 -11 4 7 11 6 20 -2 38 -34 71 -53 88
-50 4 1 7 -4 7 -11 0 -8 4 -7 10 3 7 11 10 11 10 2 0 -7 4 -11 9 -7 5 3 13 -4
16 -16 4 -12 10 -18 14 -13 9 14 40 13 35 -1 -3 -6 2 -12 10 -12 8 0 12 7 9
16 -3 12 -2 12 7 -2 12 -19 46 -25 34 -5 -4 7 -3 8 4 4 6 -4 8 -14 5 -24 -3
-9 -3 -14 2 -10 4 4 16 3 26 -3 14 -7 17 -6 14 4 -4 8 2 13 14 13 11 0 17 -4
14 -10 -3 -5 5 -7 21 -4 26 5 37 -6 14 -15 -7 -3 -3 -4 10 -4 12 1 21 6 18 12
-2 7 2 12 10 12 7 0 11 -4 8 -9 -8 -13 11 -9 25 5 10 10 11 9 6 -5 -4 -10 -12
-18 -18 -18 -6 0 -7 -3 -4 -7 4 -3 17 2 29 13 12 10 18 13 14 7 -4 -8 -1 -13
8 -13 10 0 13 7 11 20 -2 12 0 18 6 15 5 -4 7 -9 5 -13 -2 -4 2 -15 9 -25 11
-16 13 -16 19 -2 4 11 2 14 -7 9 -9 -5 -8 -3 1 7 11 12 14 12 22 -1 5 -8 6
-19 4 -25 -3 -5 4 1 15 14 12 13 21 18 21 12 0 -6 10 -11 23 -11 21 1 22 1 3
15 -11 8 -15 15 -9 15 7 0 15 -5 18 -10 5 -8 12 -7 23 2 10 8 13 9 9 1 -4 -6
-3 -14 3 -18 5 -3 10 1 10 9 0 9 4 16 10 16 5 0 7 -6 4 -14 -7 -18 15 -15 48
6 19 13 28 14 37 5 8 -8 14 -8 23 1 15 15 32 16 23 2 -3 -6 -1 -10 5 -10 7 0
9 8 4 22 -6 19 -5 21 8 11 8 -7 18 -9 22 -5 8 7 13 8 41 11 8 0 15 6 15 12 0
5 -5 7 -12 3 -6 -4 -8 -3 -5 4 4 5 15 9 25 8 9 -2 20 4 24 13 5 12 7 11 7 -7
1 -19 3 -21 15 -10 8 7 12 16 9 20 -2 4 4 5 13 1 13 -5 15 -3 9 8 -8 12 -6 12
8 0 15 -12 20 -11 40 8 13 11 28 21 35 21 6 0 14 5 18 12 5 7 3 8 -5 3 -10 -6
-11 -3 -2 14 13 24 19 27 17 9 -2 -23 19 -21 31 3 7 13 13 18 13 12 0 -7 5
-13 11 -13 5 0 7 5 4 10 -3 6 -1 10 5 10 6 0 8 4 5 10 -3 5 0 11 7 11 7 1 18
2 23 3 6 0 22 13 37 29 15 15 34 27 42 27 8 0 16 5 18 10 2 6 13 12 25 12 13
1 19 7 16 15 -4 9 0 11 13 6 12 -4 15 -3 10 5 -4 7 -1 12 8 12 9 0 16 7 16 16
0 14 3 14 15 4 13 -11 14 -10 8 5 -5 14 -3 17 10 12 11 -4 15 -1 12 12 -2 14
1 17 15 14 20 -5 53 34 43 50 -4 6 0 8 10 4 9 -3 20 0 24 7 5 7 17 18 28 25
18 11 18 12 1 7 -16 -5 -17 -4 -6 8 6 9 15 15 18 14 26 -3 34 3 23 16 -9 11
-6 13 14 11 14 -2 25 1 25 6 0 5 -6 9 -12 9 -7 0 -5 5 5 11 9 5 22 7 29 3 7
-4 8 -3 4 5 -4 6 6 22 24 37 18 16 29 33 26 41 -3 8 -1 11 4 8 6 -3 10 -1 10
5 0 6 4 9 9 5 6 -3 8 3 6 15 -2 11 1 23 7 26 7 5 8 2 3 -6 -5 -8 -3 -11 6 -8
8 3 13 15 13 27 -1 18 1 19 14 9 12 -10 14 -10 8 0 -4 7 -2 12 5 12 8 0 7 5
-2 17 -8 9 -9 14 -2 10 15 -9 44 3 37 15 -4 6 -10 5 -15 -3 -6 -10 -9 -10 -9
-2 0 14 40 44 51 38 4 -3 6 7 4 21 -1 15 3 28 11 31 8 3 11 9 8 14 -3 5 0 9 7
9 7 0 9 3 6 7 -4 3 1 12 11 20 10 9 11 11 2 7 -12 -7 -13 -5 -3 8 7 8 10 18 6
22 -4 4 1 4 10 0 19 -7 20 14 2 29 -6 5 0 7 12 4 18 -4 21 -2 14 10 -10 19 16
76 31 67 6 -4 6 1 -1 14 -7 14 -8 23 -1 27 6 4 7 11 4 17 -5 8 -1 9 10 5 9 -4
14 -3 11 2 -3 5 -1 12 4 15 10 7 9 25 -3 44 -4 7 -4 12 1 11 20 -3 27 2 13 11
-12 8 -12 10 5 10 17 0 17 2 5 10 -12 8 -13 11 -1 19 11 7 11 9 0 13 -7 2 -9
9 -5 17 7 11 10 11 18 0 8 -11 9 -10 4 3 -3 10 -1 20 5 24 6 4 4 13 -6 24 -11
12 -13 20 -5 25 8 5 7 11 -2 23 -8 10 -9 13 -1 9 6 -4 14 -3 18 3 3 5 1 10 -6
10 -8 0 -8 4 1 15 10 12 10 15 -1 15 -11 0 -11 2 1 10 10 6 11 10 3 10 -7 0
-13 5 -13 11 0 5 4 8 8 5 4 -2 8 4 8 15 0 10 -4 19 -8 19 -5 0 -4 9 2 20 8 15
8 20 -1 20 -8 0 -7 5 2 17 12 15 12 16 -1 8 -13 -8 -13 -7 0 10 14 17 13 18
-10 12 -24 -6 -24 -5 -6 8 11 8 16 15 12 15 -5 0 -2 8 5 17 8 9 9 14 4 11 -6
-4 -17 3 -25 15 -12 20 -12 21 4 8 15 -13 17 -12 12 14 -3 16 -10 32 -17 35
-8 6 -7 9 2 13 10 4 10 6 2 6 -7 1 -13 6 -13 12 0 6 7 9 14 6 10 -4 13 -1 9 8
-3 8 -9 13 -13 10 -5 -3 -12 0 -16 6 -4 7 -3 9 4 5 6 -3 13 -2 17 4 3 5 2 10
-4 10 -6 0 -7 7 -4 17 4 11 3 14 -5 9 -18 -11 -14 5 5 19 13 9 13 14 3 20 -9
6 -11 4 -5 -6 5 -8 5 -11 0 -7 -4 4 -8 31 -8 60 1 29 -4 59 -11 67 -8 12 -8
13 2 7 6 -4 12 -2 12 3 0 6 -6 11 -12 11 -9 0 -8 4 2 10 12 8 12 10 1 10 -11
0 -11 3 -1 15 15 18 0 20 -20 2 -12 -10 -12 -9 -1 6 11 14 11 20 0 34 -10 11
-10 14 -1 9 7 -4 12 -2 12 4 0 6 6 8 13 4 6 -4 4 2 -6 13 -9 11 -14 23 -10 26
3 4 1 7 -4 7 -6 0 -10 8 -8 18 1 9 -2 23 -8 30 -7 9 -6 11 7 6 12 -5 15 -2 10
10 -3 9 -11 13 -17 9 -6 -3 -7 -1 -3 5 4 7 2 12 -5 12 -7 0 -4 7 7 15 17 13
17 14 2 15 -21 0 -22 9 -7 30 9 13 10 12 5 -3 -3 -11 -2 -16 4 -12 14 9 12 21
-6 40 -10 9 -14 26 -11 41 2 14 -2 31 -10 40 -11 11 -12 14 -1 14 11 0 11 2 0
9 -8 4 -12 17 -10 27 2 10 -2 18 -7 17 -6 -1 -11 9 -11 22 0 13 4 21 8 19 4
-3 8 0 8 5 0 6 -5 11 -11 11 -5 0 -7 5 -3 12 5 8 2 9 -9 5 -10 -3 -17 -4 -17
-1 0 2 10 9 23 14 17 7 18 9 5 9 -10 1 -18 6 -18 12 0 5 3 8 8 6 4 -3 7 7 7
23 0 15 -5 26 -10 23 -6 -2 -11 7 -12 19 -2 16 0 19 6 10 13 -22 20 22 8 44
-14 24 -17 85 -4 77 6 -3 8 7 5 25 -3 21 -1 28 8 25 13 -5 14 28 1 38 -10 7 3
40 13 34 5 -3 12 0 16 6 4 7 3 9 -2 6 -6 -3 -16 -2 -24 4 -13 7 -12 9 1 9 9 0
20 7 23 16 3 8 2 12 -3 9 -5 -3 -13 -1 -16 5 -4 6 -1 9 7 8 8 -2 13 6 12 20 0
14 5 22 15 22 10 0 12 3 6 8 -13 9 -13 27 -1 39 5 4 6 3 2 -4 -3 -6 -2 -14 3
-17 11 -7 9 13 -3 33 -6 9 -5 12 2 7 6 -3 13 -2 17 4 3 5 1 10 -4 10 -6 0 -11
5 -11 11 0 5 5 7 12 3 8 -5 9 2 5 27 -4 19 -4 30 1 24 4 -5 13 -11 20 -13 10
-2 10 2 2 18 -8 15 -8 25 -1 34 6 7 8 16 4 20 -4 4 1 4 12 0 18 -7 19 -6 5 11
-8 10 -10 16 -3 12 6 -4 14 -3 18 3 3 5 0 10 -7 10 -10 0 -10 2 1 9 7 5 10 14
7 20 -4 6 0 14 9 17 9 4 14 13 11 20 -3 8 -1 14 3 14 5 0 11 -6 14 -12 3 -7 4
-3 4 9 -1 12 -5 19 -11 16 -5 -4 -6 -1 -2 6 5 7 14 10 22 7 8 -3 11 0 8 8 -3
7 2 18 10 25 12 11 13 17 4 35 -10 19 -10 20 5 8 14 -12 15 -11 11 12 -2 13 1
28 7 32 8 5 9 3 4 -7 -8 -12 -6 -12 8 0 10 8 15 16 12 19 -3 3 0 11 7 19 6 7
8 16 4 20 -3 3 -6 1 -6 -5 0 -7 -5 -12 -11 -12 -8 0 -7 5 1 15 7 9 19 14 26
11 8 -3 11 0 7 9 -3 8 -10 12 -16 8 -6 -4 -7 -1 -3 6 5 7 14 10 22 7 14 -5 15
14 2 24 -10 8 2 50 14 50 5 0 4 -10 -2 -22 -11 -22 -11 -22 5 -3 14 18 14 21
0 31 -16 12 -21 29 -6 20 5 -4 4 5 -2 19 -7 14 -19 25 -27 25 -13 0 -13 1 0
10 13 8 12 10 -4 10 -12 0 -16 5 -12 16 3 8 2 13 -2 11 -10 -7 -32 19 -24 29
4 5 -2 2 -12 -6 -13 -10 -17 -10 -12 -2 4 7 2 12 -4 12 -6 0 -8 5 -4 13 5 7 0
6 -11 -3 -17 -14 -18 -13 -13 2 5 12 1 16 -17 13 -15 -1 -22 2 -18 8 4 6 -2 8
-15 5 -12 -4 -22 -2 -22 4 0 5 -6 6 -12 2 -9 -5 -8 -2 1 9 12 15 12 17 -4 11
-10 -4 -21 -1 -27 7 -8 11 -9 10 -4 -3 3 -10 0 -20 -6 -24 -7 -4 -8 -3 -4 4 4
7 1 12 -9 12 -10 0 -13 5 -9 12 5 7 3 8 -7 2 -18 -11 -32 -12 -40 -1 -3 5 -18
10 -33 11 -15 2 -24 1 -21 -2 2 -3 0 -11 -6 -18 -11 -14 -42 -8 -33 7 3 5 -2
6 -10 3 -9 -3 -13 -11 -9 -18 4 -6 0 -5 -9 2 -14 11 -18 10 -27 -5 -6 -10 -11
-13 -11 -5 0 10 -3 10 -14 0 -8 -7 -12 -16 -9 -20 2 -5 -8 -3 -22 2 -19 7 -24
7 -19 -2 5 -8 0 -9 -15 -5 -19 5 -20 3 -9 -11 7 -9 8 -13 2 -9 -7 4 -17 0 -24
-8 -10 -12 -16 -13 -28 -3 -13 10 -14 10 -8 1 4 -8 2 -13 -5 -13 -6 0 -18 -8
-26 -17 -8 -10 -11 -12 -7 -4 5 10 3 12 -5 7 -7 -5 -16 -19 -21 -32 -6 -16
-15 -22 -25 -18 -10 4 -15 2 -13 -7 2 -7 -4 -13 -12 -14 -8 0 -15 -5 -15 -12
0 -6 -3 -15 -7 -19 -5 -4 -8 -1 -8 6 0 7 -3 10 -6 7 -4 -4 -1 -13 5 -21 10
-12 8 -14 -12 -12 -19 2 -23 -1 -20 -14 3 -10 -1 -21 -8 -25 -8 -6 -10 -4 -4
5 5 8 4 11 -3 6 -6 -4 -9 -13 -5 -21 3 -8 0 -15 -6 -15 -6 0 -11 -7 -11 -16 0
-8 -4 -12 -10 -9 -6 4 -10 -5 -10 -21 0 -21 -3 -24 -14 -15 -11 9 -12 6 -8
-15 3 -18 1 -25 -6 -20 -6 3 -14 1 -18 -5 -4 -7 -3 -9 4 -5 6 3 13 2 17 -4 3
-5 -1 -10 -10 -10 -13 0 -14 -4 -5 -21 7 -11 9 -23 6 -27 -3 -3 -6 0 -6 6 0
27 -16 9 -18 -20 -4 -46 -12 -90 -19 -101 -4 -6 -1 -7 8 -2 8 5 11 5 7 0 -4
-4 -3 -17 3 -28 8 -14 8 -18 0 -13 -6 4 -11 2 -11 -3 0 -18 5 -26 13 -23 5 1
6 -2 2 -7 -3 -6 -13 -8 -23 -5 -14 5 -14 3 2 -10 17 -13 18 -18 6 -29 -10 -10
-11 -9 -5 2 5 9 4 12 -2 8 -6 -4 -8 -19 -5 -33 4 -21 2 -25 -9 -19 -11 6 -12
5 -1 -6 6 -7 12 -17 12 -22 0 -4 -6 -5 -12 -1 -10 6 -10 5 -1 -7 10 -12 10
-18 1 -27 -9 -9 -9 -12 1 -12 7 0 9 -5 6 -10 -4 -6 -12 -7 -18 -3 -7 4 -5 -2
3 -12 13 -17 13 -18 -1 -13 -9 4 -16 1 -16 -8 0 -7 4 -11 9 -8 14 9 -5 -30
-21 -44 -9 -8 -11 -11 -5 -8 6 3 11 -1 11 -8 0 -8 -6 -12 -13 -9 -6 2 -15 -1
-20 -8 -5 -8 -3 -10 5 -4 7 4 5 -4 -4 -19 -10 -14 -24 -26 -31 -26 -8 0 -14
-5 -14 -11 0 -5 5 -7 12 -3 7 4 8 3 4 -5 -4 -6 -11 -9 -15 -6 -5 2 -17 -3 -27
-11 -10 -9 -13 -12 -5 -8 9 4 12 3 7 -4 -4 -6 -14 -8 -23 -5 -9 4 -19 -1 -25
-11 -5 -9 -13 -14 -18 -11 -5 3 -11 1 -14 -3 -7 -12 -56 -3 -56 10 0 6 -8 4
-17 -3 -11 -10 -14 -10 -9 -1 4 7 1 12 -8 12 -9 0 -16 -5 -16 -12 0 -6 -3 -8
-6 -5 -4 4 -2 12 4 20 8 10 6 13 -8 13 -10 0 -17 -4 -14 -8 2 -4 -4 -6 -15 -5
-14 1 -17 5 -10 13 7 8 6 15 -2 20 -8 4 -9 3 -5 -4 4 -7 3 -12 -2 -12 -5 0
-15 11 -22 25 -9 17 -19 23 -31 20 -10 -3 -19 1 -23 10 -3 9 -11 13 -17 9 -7
-4 -6 2 2 17 11 22 11 23 -4 10 -15 -12 -17 -11 -17 3 0 10 -4 14 -10 11 -5
-3 -10 1 -10 9 0 8 -11 23 -25 34 -13 11 -21 23 -17 27 4 4 -3 4 -15 1 -18 -6
-22 -4 -17 7 3 9 -3 16 -15 20 -15 4 -19 10 -14 23 5 13 3 15 -7 9 -10 -6 -12
-4 -6 10 6 16 4 16 -11 4 -11 -9 -14 -10 -9 -1 4 7 2 12 -4 12 -6 0 -9 4 -6 9
4 5 0 12 -6 14 -10 4 -9 8 2 17 12 9 10 10 -9 5 -19 -6 -23 -4 -18 8 4 12 2
14 -10 10 -10 -4 -14 -2 -10 4 4 5 0 19 -8 29 -15 18 -15 18 -9 -1 l7 -20 -16
20 c-9 11 -11 22 -6 23 5 2 9 8 9 13 0 4 -7 5 -17 2 -12 -5 -14 -3 -8 7 6 10
4 12 -8 7 -9 -3 -19 -1 -23 5 -4 7 -3 8 4 4 7 -4 12 -1 12 9 0 10 -5 13 -12 9
-8 -5 -9 -2 -4 11 6 16 4 16 -11 4 -14 -12 -16 -12 -8 0 6 11 4 13 -10 7 -15
-5 -16 -4 -5 9 11 13 11 18 0 28 -10 9 -11 9 -6 0 5 -9 2 -11 -8 -7 -9 3 -13
10 -10 16 7 11 -31 50 -40 41 -3 -4 -6 -1 -6 5 0 5 6 13 13 16 6 4 3 5 -9 2
-12 -2 -21 2 -21 10 0 7 5 11 11 8 6 -3 3 1 -6 9 -10 8 -14 18 -10 22 4 5 -1
5 -10 2 -17 -6 -24 8 -19 36 1 5 -3 6 -9 2 -5 -3 -10 1 -10 9 0 9 -5 16 -11
16 -6 0 -8 7 -5 16 5 14 4 15 -8 5 -11 -9 -16 -9 -22 0 -4 8 -3 9 4 5 16 -10
15 2 -2 19 -7 8 -17 11 -21 7 -5 -4 -5 1 -2 11 4 9 2 17 -4 17 -6 0 -7 5 -3
12 5 8 2 9 -9 5 -9 -3 -19 -1 -23 5 -4 7 -3 8 4 4 7 -4 12 -2 12 3 0 6 -5 11
-11 11 -5 0 -7 5 -3 12 5 8 2 9 -10 5 -14 -5 -17 -3 -12 8 3 10 -1 15 -12 15
-15 0 -15 2 -2 10 12 8 10 10 -10 10 -14 0 -20 4 -15 8 6 4 11 13 13 21 3 12
1 12 -14 0 -16 -12 -17 -12 -11 5 6 14 4 17 -9 12 -14 -5 -15 -4 -5 8 8 10 9
16 1 21 -6 3 -7 11 -4 17 4 7 2 8 -5 4 -8 -6 -9 -12 -2 -20 8 -9 7 -13 -3 -13
-7 0 -13 10 -12 21 1 13 -4 20 -12 18 -8 -1 -11 2 -7 8 3 5 1 10 -4 10 -6 0
-11 8 -11 18 0 11 -10 24 -22 31 -19 9 -19 11 -3 6 l20 -5 -20 16 c-11 8 -19
20 -17 25 1 6 -2 8 -8 4 -5 -3 -10 1 -10 9 0 15 -12 21 -33 17 -5 -1 -6 3 -2
9 3 6 12 7 18 3 7 -3 4 3 -7 15 -10 12 -23 19 -29 15 -6 -3 -7 -1 -3 5 4 7 2
12 -4 12 -7 0 -10 6 -7 13 5 15 -32 49 -45 41 -6 -4 -5 3 1 14 8 16 7 21 -5
26 -10 4 -13 2 -8 -7 5 -8 2 -7 -9 2 -9 7 -17 19 -16 25 0 7 2 6 6 -2 2 -6 9
-9 15 -6 5 3 -5 15 -22 26 -20 12 -30 24 -26 33 3 9 -1 15 -9 15 -8 0 -16 5
-16 10 -1 6 -2 14 -3 19 0 5 -5 13 -10 18 -5 5 -6 2 -2 -7 4 -8 1 -6 -8 5 -8
11 -20 26 -26 33 -6 6 -8 12 -4 12 4 0 -5 9 -20 21 -24 19 -38 48 -16 34 16
-10 11 1 -7 16 -11 10 -14 10 -9 2 4 -7 2 -13 -3 -13 -6 0 -11 9 -11 21 0 13
-4 18 -12 13 -9 -5 -8 -2 1 9 8 10 11 20 7 24 -3 3 -6 1 -6 -5 0 -6 -6 -9 -14
-6 -8 3 -13 11 -10 19 4 8 -3 11 -20 10 -15 -2 -24 1 -20 6 3 5 10 6 16 3 7
-4 8 -2 4 4 -4 7 -13 12 -20 12 -17 0 -48 35 -39 43 3 4 -2 7 -13 7 -16 0 -17
2 -4 11 12 9 10 10 -8 6 -19 -4 -21 -3 -12 8 10 12 8 13 -10 10 -18 -4 -20 -2
-9 11 6 8 9 17 5 21 -3 3 -6 2 -6 -4 0 -5 -7 -10 -15 -10 -8 0 -11 5 -8 10 4
7 -1 8 -12 3 -16 -6 -16 -4 -4 11 8 9 9 14 2 10 -7 -4 -16 0 -22 10 -10 17
-10 17 -11 0 0 -10 -5 -15 -10 -12 -6 4 -8 11 -5 16 4 5 -1 9 -9 9 -9 0 -16 5
-16 10 0 6 -9 10 -20 10 -11 0 -20 -5 -20 -12 0 -6 -3 -8 -6 -5 -4 4 -2 12 4
20 8 10 6 13 -9 14 -11 1 -17 -2 -14 -7 3 -4 -6 -3 -19 3 -13 7 -22 15 -20 19
3 5 3 8 0 8 -3 0 -7 -3 -7 -7z m-229 -157 c0 -2 -7 -9 -15 -16 -13 -11 -14
-10 -9 4 5 14 24 23 24 12z m-415 -177 c11 -16 1 -19 -13 -3 -7 8 -8 14 -3 14
5 0 13 -5 16 -11z m404 -443 c-3 -3 -11 5 -18 17 -13 21 -12 21 5 5 10 -10 16
-20 13 -22z m2834 -9 c3 -8 -1 -14 -9 -14 -15 0 -18 9 -7 20 9 9 10 9 16 -6z
m-3589 -63 c5 -14 4 -15 -9 -4 -17 14 -19 20 -6 20 5 0 12 -7 15 -16z m824
-19 c-3 -3 -9 2 -12 12 -6 14 -5 15 5 6 7 -7 10 -15 7 -18z m-830 -300 c-3 -3
-9 2 -12 12 -6 14 -5 15 5 6 7 -7 10 -15 7 -18z m1079 3 c-3 -8 -6 -5 -6 6 -1
11 2 17 5 13 3 -3 4 -12 1 -19z m-952 -68 c3 -6 -1 -7 -9 -4 -18 7 -21 14 -7
14 6 0 13 -4 16 -10z m3715 -4 c0 -3 -4 -8 -10 -11 -5 -3 -10 -1 -10 4 0 6 5
11 10 11 6 0 10 -2 10 -4z m-4230 -166 c0 -5 -2 -10 -4 -10 -3 0 -8 5 -11 10
-3 6 -1 10 4 10 6 0 11 -4 11 -10z m1696 -11 c19 -22 19 -22 -3 -8 -13 8 -23
17 -23 21 0 12 6 9 26 -13z m-862 -138 c14 -15 15 -21 4 -27 -7 -4 -10 -3 -5
1 4 5 0 17 -10 27 -9 10 -14 18 -11 18 3 0 13 -9 22 -19z m1015 -44 c0 -9 -2
-8 -6 1 -2 6 -10 9 -15 6 -7 -4 -8 -2 -4 5 9 13 26 5 25 -12z m990 -81 c9 -11
9 -16 -1 -22 -7 -4 -10 -4 -6 1 4 4 3 14 -3 22 -6 7 -9 13 -6 13 2 0 10 -6 16
-14z m120 -109 c8 -10 7 -14 -2 -14 -8 0 -14 6 -14 14 0 7 1 13 2 13 2 0 8 -6
14 -13z m-2155 -796 c13 -14 14 -21 5 -27 -7 -4 -10 -3 -5 4 3 6 -4 18 -16 26
-12 9 -18 16 -12 16 6 0 19 -9 28 -19z m160 -2 c-2 -4 2 -10 8 -12 8 -4 9 -6
2 -6 -6 -1 -17 5 -23 12 -8 10 -7 14 4 14 8 0 12 -4 9 -8z m153 -154 c0 -8 -4
-12 -9 -9 -5 3 -6 10 -3 15 9 13 12 11 12 -6z m-699 -290 c-3 -3 -9 2 -12 12
-6 14 -5 15 5 6 7 -7 10 -15 7 -18z m3732 -279 c0 -3 -4 -8 -10 -11 -5 -3 -10
-1 -10 4 0 6 5 11 10 11 6 0 10 -2 10 -4z m-3233 -161 c0 -8 -4 -12 -9 -9 -5
3 -6 10 -3 15 9 13 12 11 12 -6z m163 -155 c0 -5 -2 -10 -4 -10 -3 0 -8 5 -11
10 -3 6 -1 10 4 10 6 0 11 -4 11 -10z m360 -320 c0 -5 -2 -10 -4 -10 -3 0 -8
5 -11 10 -3 6 -1 10 4 10 6 0 11 -4 11 -10z m2341 -73 c-10 -9 -11 -8 -5 6 3
10 9 15 12 12 3 -3 0 -11 -7 -18z m-191 -191 c0 -11 -19 -15 -25 -6 -3 5 1 10
9 10 9 0 16 -2 16 -4z m-1633 -161 c0 -8 -4 -12 -9 -9 -5 3 -6 10 -3 15 9 13
12 11 12 -6z m1187 -147 c-3 -4 -9 -8 -15 -8 -5 0 -9 4 -9 8 0 5 7 9 15 9 8 0
12 -4 9 -9z m-314 -92 c0 -3 -4 -8 -10 -11 -5 -3 -10 -1 -10 4 0 6 5 11 10 11
6 0 10 -2 10 -4z"/>
<path d="M2695 4700 c4 -6 -4 -21 -17 -35 -13 -13 -23 -28 -23 -32 0 -4 -4
-14 -9 -22 -6 -10 -5 -12 2 -7 7 4 12 2 12 -4 0 -7 7 -9 16 -6 14 6 15 4 4 -9
-7 -9 -9 -15 -4 -14 22 4 35 -2 28 -13 -5 -8 0 -9 14 -6 12 4 25 1 29 -4 3 -7
1 -8 -5 -4 -7 4 -12 2 -12 -3 0 -10 14 -15 33 -12 4 0 7 -4 7 -10 0 -5 6 -7
13 -3 8 5 8 2 -2 -9 -12 -15 -11 -17 3 -17 11 0 14 -4 10 -12 -5 -9 -2 -9 9 1
9 7 17 9 17 4 0 -6 11 -22 25 -37 14 -15 25 -35 25 -44 0 -13 2 -14 9 -4 6 10
11 9 22 -4 12 -15 12 -17 0 -9 -10 5 -12 4 -7 -3 4 -7 13 -12 21 -12 8 0 17
-5 21 -12 4 -6 3 -8 -3 -5 -5 3 -10 0 -10 -8 0 -7 8 -12 18 -10 12 3 23 -7 34
-28 9 -18 11 -27 3 -19 -6 6 -17 12 -22 12 -6 0 1 -8 14 -17 14 -10 28 -17 33
-15 4 1 7 -5 7 -14 0 -9 -5 -13 -12 -9 -7 4 -5 0 4 -8 10 -8 14 -18 10 -23 -4
-4 1 -2 11 5 9 8 20 11 24 7 3 -3 2 -6 -4 -6 -6 0 -9 -9 -6 -19 3 -13 11 -18
21 -14 14 5 15 3 5 -8 -15 -16 -17 -33 -3 -24 6 3 10 -1 10 -9 0 -9 7 -16 16
-16 8 0 12 -5 9 -10 -10 -16 5 -50 19 -44 7 3 13 -2 13 -10 0 -8 -4 -13 -8
-10 -4 2 -11 -1 -15 -8 -4 -7 -4 -10 1 -6 4 4 14 3 22 -3 10 -9 13 -8 13 1 0
8 3 10 6 7 4 -4 1 -13 -6 -22 -8 -10 -9 -15 -1 -15 6 0 10 -3 9 -7 -4 -14 13
-53 22 -53 5 0 6 -7 3 -17 -4 -11 -3 -14 6 -9 8 5 12 3 10 -5 -4 -33 1 -50 14
-43 6 4 9 4 5 -1 -4 -4 -2 -15 5 -23 10 -13 9 -14 -1 -8 -10 6 -10 2 -1 -18 7
-14 15 -24 18 -21 4 2 6 -9 5 -23 -1 -21 3 -28 16 -28 10 0 16 4 14 8 -3 4 0
8 5 8 6 0 11 -5 11 -12 0 -6 7 -3 16 8 8 10 13 14 10 7 -4 -6 -2 -14 4 -18 5
-3 10 -1 10 5 0 8 9 10 26 6 22 -6 25 -4 20 10 -5 14 -4 15 8 5 12 -10 14 -9
11 6 -1 10 -7 17 -12 16 -5 -1 -8 13 -7 32 2 22 -3 38 -14 47 -15 11 -15 11
-5 -3 13 -16 8 -29 -11 -29 -6 0 -5 4 3 9 9 6 10 11 2 15 -8 5 -8 13 -1 27 8
15 7 21 -4 25 -13 5 -13 10 -4 27 10 20 10 21 -6 8 -9 -8 -16 -10 -15 -5 4 21
-2 35 -12 28 -7 -4 -7 1 1 16 8 15 8 20 1 16 -7 -5 -11 3 -11 19 0 14 -4 24
-9 21 -5 -3 -11 7 -14 23 -3 16 -13 36 -21 44 -12 12 -13 17 -3 20 8 4 7 6 -3
6 -13 1 -43 41 -48 64 -1 4 -13 19 -26 34 -13 14 -23 34 -21 44 2 11 -1 19 -6
19 -6 0 -7 5 -3 12 5 8 2 9 -10 5 -14 -5 -17 -3 -12 8 3 9 0 15 -8 15 -8 0
-17 7 -20 16 -3 8 -2 12 3 9 5 -3 12 -1 15 4 3 5 -7 8 -23 7 -26 -2 -28 0 -19
17 5 10 7 21 4 25 -3 3 -6 -1 -6 -9 -1 -10 -4 -9 -11 4 -6 9 -14 15 -20 12 -5
-3 -6 1 -3 9 3 9 1 16 -6 16 -6 0 -9 4 -5 9 3 5 0 13 -6 17 -8 5 -9 3 -4 -6 5
-9 4 -11 -3 -6 -7 4 -12 13 -12 19 0 12 -33 38 -46 36 -11 -1 -44 44 -38 52 3
5 -9 12 -26 16 -22 4 -28 8 -18 14 10 7 9 9 -5 9 -12 0 -16 4 -11 13 5 8 2 7
-9 -2 -15 -12 -17 -12 -11 3 7 19 -12 22 -20 4 -3 -7 -4 -4 -3 7 1 15 -3 19
-17 17 -12 -2 -16 1 -10 9 5 9 2 10 -11 5 -16 -6 -16 -4 -4 11 12 15 12 16 -3
10 -9 -3 -19 -1 -22 6 -3 9 -8 8 -15 -3 -7 -10 -11 -11 -11 -2 0 6 -5 12 -11
12 -5 0 -7 -5 -4 -10z m-14 -53 c-6 -8 -8 -16 -5 -19 3 -3 1 -9 -4 -12 -6 -3
-9 0 -8 6 2 16 15 38 23 38 3 0 0 -6 -6 -13z m290 -144 c13 -16 12 -17 -3 -4
-10 7 -18 15 -18 17 0 8 8 3 21 -13z"/>
<path d="M2271 4604 c0 -11 3 -14 6 -6 3 7 2 16 -1 19 -3 4 -6 -2 -5 -13z"/>
<path d="M3410 4599 c0 -5 5 -7 10 -4 6 3 10 8 10 11 0 2 -4 4 -10 4 -5 0 -10
-5 -10 -11z"/>
<path d="M3239 4547 c6 -8 7 -18 3 -22 -4 -5 -1 -5 6 -1 10 6 10 11 1 22 -6 8
-14 14 -16 14 -3 0 0 -6 6 -13z"/>
<path d="M3475 4500 c3 -5 11 -10 16 -10 6 0 7 5 4 10 -3 6 -11 10 -16 10 -6
0 -7 -4 -4 -10z"/>
<path d="M2417 4429 c7 -7 15 -10 18 -7 3 3 -2 9 -12 12 -14 6 -15 5 -6 -5z"/>
<path d="M3393 4321 c0 -11 5 -18 9 -15 4 3 5 11 1 19 -7 21 -12 19 -10 -4z"/>
<path d="M3162 4282 c-9 -6 -7 -13 10 -28 17 -14 19 -15 9 -2 -7 9 -10 22 -6
28 7 12 4 12 -13 2z"/>
<path d="M3195 4210 c3 -5 8 -10 11 -10 2 0 4 5 4 10 0 6 -5 10 -11 10 -5 0
-7 -4 -4 -10z"/>
<path d="M4306 3933 c-6 -14 -5 -15 5 -6 7 7 10 15 7 18 -3 3 -9 -2 -12 -12z"/>
<path d="M2355 3440 c3 -5 8 -10 11 -10 2 0 4 5 4 10 0 6 -5 10 -11 10 -5 0
-7 -4 -4 -10z"/>
<path d="M3963 3395 c0 -8 4 -12 9 -9 4 3 8 9 8 15 0 5 -4 9 -8 9 -5 0 -9 -7
-9 -15z"/>
<path d="M4710 3321 c0 -6 4 -13 10 -16 6 -3 7 1 4 9 -7 18 -14 21 -14 7z"/>
<path d="M1607 3199 c7 -7 15 -10 18 -7 3 3 -2 9 -12 12 -14 6 -15 5 -6 -5z"/>
<path d="M1480 3181 c0 -6 4 -13 10 -16 6 -3 7 1 4 9 -7 18 -14 21 -14 7z"/>
<path d="M3358 3183 c7 -3 16 -2 19 1 4 3 -2 6 -13 5 -11 0 -14 -3 -6 -6z"/>
<path d="M660 3100 c-9 -6 -10 -10 -3 -10 6 0 15 5 18 10 8 12 4 12 -15 0z"/>
<path d="M3746 2951 c-3 -5 -16 -7 -29 -5 -20 4 -20 4 -2 -5 11 -5 25 -5 31 0
6 5 15 5 19 1 5 -4 5 -1 1 6 -9 14 -13 15 -20 3z"/>
<path d="M4603 2895 c0 -8 4 -12 9 -9 5 3 6 10 3 15 -9 13 -12 11 -12 -6z"/>
<path d="M4620 2636 c0 -2 7 -7 16 -10 8 -3 12 -2 9 4 -6 10 -25 14 -25 6z"/>
<path d="M1075 2450 c3 -5 8 -10 11 -10 2 0 4 5 4 10 0 6 -5 10 -11 10 -5 0
-7 -4 -4 -10z"/>
<path d="M1298 2448 c10 -13 10 -17 0 -21 -9 -4 -9 -6 -1 -6 20 -2 24 16 5 30
-15 13 -16 12 -4 -3z"/>
<path d="M1140 2420 c8 -5 20 -10 25 -10 6 0 3 5 -5 10 -8 5 -19 10 -25 10 -5
0 -3 -5 5 -10z"/>
<path d="M4695 2220 c3 -5 8 -10 11 -10 2 0 4 5 4 10 0 6 -5 10 -11 10 -5 0
-7 -4 -4 -10z"/>
<path d="M1506 2111 c-4 -5 -2 -12 3 -15 5 -4 12 -2 15 3 4 5 2 12 -3 15 -5 4
-12 2 -15 -3z"/>
<path d="M1653 2065 c0 -8 4 -12 9 -9 5 3 6 10 3 15 -9 13 -12 11 -12 -6z"/>
<path d="M413 1950 c-2 -3 -8 -5 -12 -5 -3 0 -18 -11 -31 -24 -14 -13 -20 -21
-13 -17 14 8 28 -28 17 -45 -5 -8 -3 -9 6 -4 10 6 12 4 7 -9 -4 -10 -3 -15 3
-11 6 3 10 1 10 -5 0 -6 4 -8 10 -5 6 4 7 -1 3 -11 -5 -12 -3 -15 6 -9 10 5
11 2 6 -14 -5 -17 -3 -20 12 -14 15 6 16 4 6 -8 -9 -11 -8 -18 1 -31 7 -10 17
-14 21 -10 4 4 5 -3 2 -15 -3 -16 -1 -23 9 -23 13 0 16 -5 18 -39 1 -17 26
-28 26 -11 0 6 -5 8 -12 4 -7 -4 -8 -3 -4 5 11 17 29 2 23 -20 -3 -12 0 -19 9
-19 8 0 14 -7 14 -15 0 -8 -5 -15 -12 -15 -6 0 -8 -3 -5 -6 4 -4 13 -1 21 5
13 11 15 9 11 -9 -4 -19 -2 -20 12 -8 14 11 15 11 11 -2 -7 -20 9 -50 26 -50
8 0 20 -8 27 -17 10 -11 10 -14 2 -9 -7 4 -13 2 -13 -3 0 -6 7 -11 16 -11 9 0
12 -5 8 -12 -5 -8 -2 -9 9 -5 9 3 19 1 23 -5 4 -7 3 -8 -4 -4 -7 4 -12 2 -12
-3 0 -6 5 -11 11 -11 5 0 7 -5 4 -10 -4 -6 -3 -10 2 -9 18 3 36 -1 30 -7 -7
-7 30 -44 45 -44 4 0 8 -5 8 -11 0 -11 9 -20 50 -54 l25 -20 -15 20 c-9 13 -4
11 12 -5 14 -14 23 -29 20 -35 -3 -5 2 -4 11 4 17 13 18 13 21 -11 0 -7 11
-15 23 -18 13 -3 31 -13 42 -22 11 -9 23 -13 27 -10 4 4 4 2 1 -4 -4 -7 1 -18
10 -25 9 -8 14 -9 10 -2 -8 13 18 12 30 -2 4 -4 2 -5 -4 -1 -7 4 -13 2 -13 -3
0 -6 10 -11 21 -11 12 0 28 -8 36 -17 8 -10 12 -13 9 -7 -3 6 1 11 8 11 8 0
12 -5 10 -11 -2 -6 6 -17 18 -25 18 -10 20 -10 11 0 -7 7 -13 17 -13 23 0 5 9
-1 20 -14 11 -13 20 -18 20 -12 0 7 7 12 15 12 8 0 15 5 15 11 0 5 -6 7 -12 3
-9 -6 -9 -3 0 9 8 9 11 21 7 27 -9 14 8 13 24 -2 10 -11 11 -10 6 5 -4 9 -12
17 -19 17 -8 0 -8 2 0 8 6 4 11 15 11 24 0 15 -3 15 -16 5 -12 -10 -14 -9 -8
6 6 15 3 17 -13 12 -12 -4 -20 -2 -20 5 0 6 -5 8 -10 5 -6 -4 -9 -1 -8 6 2 7
-7 14 -19 15 -40 3 -42 4 -37 17 3 8 -4 13 -18 14 -12 1 -36 17 -53 36 -19 20
-39 33 -52 32 -18 -1 -20 2 -13 15 8 14 5 17 -16 14 -20 -2 -23 0 -14 11 8 10
8 15 -1 21 -8 4 -9 3 -5 -4 4 -7 2 -12 -3 -12 -6 0 -11 5 -11 10 0 6 -6 10
-14 10 -10 0 -13 7 -11 20 2 11 0 18 -5 15 -15 -9 -50 18 -50 40 0 17 -2 17
-10 5 -8 -12 -10 -11 -10 7 0 12 -5 25 -10 28 -6 4 -7 11 -4 17 4 6 3 8 -3 5
-5 -3 -22 2 -37 12 -19 13 -24 20 -14 24 10 4 10 6 0 6 -7 1 -10 6 -6 13 4 6
3 8 -3 5 -6 -4 -19 1 -29 9 -19 15 -19 15 1 10 17 -5 18 -4 4 6 -16 14 -33 48
-30 61 1 5 -4 5 -10 2 -8 -5 -8 -10 0 -18 6 -6 11 -16 11 -21 0 -6 -7 0 -16
12 -8 12 -12 27 -9 32 3 6 0 10 -8 10 -10 0 -13 7 -10 20 3 12 0 20 -6 20 -7
0 -9 -6 -6 -12 4 -7 0 -5 -9 5 -8 11 -12 25 -10 32 3 7 -5 15 -17 18 -20 5
-21 8 -8 24 7 10 9 15 5 11 -12 -11 -46 31 -39 48 3 8 0 14 -6 14 -6 0 -11 9
-11 20 0 11 -5 20 -11 20 -5 0 -7 -4 -4 -10 3 -6 -1 -7 -9 -4 -9 3 -14 9 -12
13 5 8 -53 9 -61 1z m23 -12 c4 -7 4 -10 -1 -6 -4 4 -14 3 -21 -3 -8 -7 -14
-6 -20 2 -4 7 -3 9 4 5 6 -3 13 -2 17 4 8 13 12 13 21 -2z m343 -412 c-3 -3
-11 5 -18 17 -13 21 -12 21 5 5 10 -10 16 -20 13 -22z"/>
<path d="M536 1878 c3 -4 9 -8 15 -8 5 0 9 4 9 8 0 5 -7 9 -15 9 -8 0 -12 -4
-9 -9z"/>
<path d="M1870 1860 c0 -5 5 -10 11 -10 5 0 7 -5 3 -12 -4 -7 -3 -8 5 -4 9 6
9 11 0 22 -14 17 -19 18 -19 4z"/>
<path d="M115 1820 c-3 -5 -15 -10 -26 -10 -10 0 -19 -6 -19 -12 0 -10 -3 -9
-9 1 -7 11 -10 11 -15 0 -5 -11 -7 -11 -12 -1 -5 10 -9 10 -20 1 -15 -12 -20
-84 -5 -75 4 3 7 -6 5 -19 -1 -14 2 -25 7 -25 4 0 5 -8 2 -17 -6 -16 -5 -16
10 -4 20 16 23 2 4 -18 -9 -11 -9 -13 1 -7 7 4 12 1 12 -7 0 -8 10 -19 22 -26
13 -6 16 -10 7 -7 -9 2 -16 -2 -16 -9 0 -7 6 -11 14 -8 7 3 13 -2 13 -12 0 -9
4 -13 10 -10 6 3 7 -1 4 -9 -4 -11 2 -19 17 -25 21 -8 21 -10 5 -10 -20 -1
-20 -1 -1 -15 11 -8 24 -12 28 -9 5 3 4 -3 -2 -14 -8 -17 -6 -22 14 -33 13 -7
23 -16 22 -20 -1 -5 3 -8 8 -8 6 -1 13 -11 16 -24 3 -13 11 -22 17 -21 6 2 9
-3 6 -11 -3 -7 2 -19 10 -26 9 -7 13 -16 11 -21 -3 -4 4 -6 16 -4 17 4 19 2 8
-11 -10 -12 -9 -13 6 -8 14 6 16 3 10 -17 -3 -13 -3 -19 2 -13 5 8 14 5 28 -9
11 -11 13 -16 5 -12 -13 8 -13 7 -1 -8 7 -9 20 -17 27 -17 13 0 19 -13 15 -33
-1 -5 3 -6 9 -2 5 3 10 1 10 -5 0 -6 5 -8 12 -4 10 6 10 5 1 -8 -16 -18 -5
-32 14 -17 10 9 13 8 13 -5 0 -9 5 -16 10 -16 6 0 10 -6 10 -13 0 -8 8 -21 18
-30 15 -13 21 -14 31 -4 10 9 11 8 6 -5 -4 -11 -2 -18 5 -18 6 0 9 -4 6 -9 -3
-5 2 -15 11 -22 12 -10 14 -10 9 -1 -4 6 -2 12 3 12 6 0 11 -5 11 -11 0 -5 5
-7 11 -3 8 4 9 -1 5 -17 -3 -13 -3 -18 0 -10 5 10 13 6 30 -14 21 -25 36 -24
17 1 -5 5 2 -1 15 -13 12 -12 22 -28 22 -35 0 -9 3 -9 10 2 7 11 10 11 10 2 0
-8 5 -10 13 -6 9 6 9 4 -1 -8 -12 -14 -10 -16 10 -11 19 4 20 3 8 -7 -12 -10
-11 -11 8 -7 15 3 22 0 22 -9 0 -8 9 -14 20 -14 12 0 20 -7 20 -17 0 -15 2
-16 10 -3 7 11 10 11 10 2 0 -8 5 -10 13 -6 7 5 6 0 -3 -11 -8 -10 -10 -16 -4
-12 12 7 78 -16 70 -24 -3 -3 4 -5 15 -6 11 -1 28 -10 37 -20 9 -11 13 -12 7
-4 -8 12 -7 12 11 3 12 -6 25 -8 30 -4 5 4 3 0 -3 -8 -9 -12 -7 -15 12 -15 20
0 22 3 12 20 -9 19 -9 19 8 5 11 -9 16 -10 11 -2 -4 6 -2 12 3 12 6 0 11 5 11
11 0 5 -4 8 -9 5 -11 -7 -8 21 4 31 4 4 5 2 1 -4 -10 -19 -1 -16 15 4 10 11
10 14 2 9 -7 -4 -14 -2 -14 3 -1 6 -2 17 -3 24 -1 6 2 18 7 25 6 7 7 15 3 19
-3 3 -6 0 -6 -8 0 -8 -7 -4 -16 10 -11 15 -23 21 -35 18 -11 -3 -22 0 -26 5
-4 7 -1 8 7 3 9 -5 11 -4 6 4 -6 9 -11 9 -22 0 -8 -6 -17 -9 -21 -5 -3 3 -1 6
7 6 10 0 10 3 -1 16 -8 10 -22 14 -38 11 -25 -5 -25 -5 -6 10 20 15 20 15 -2
10 -17 -4 -23 -1 -23 11 0 15 -2 15 -10 2 -7 -11 -10 -11 -10 -2 0 7 -5 10
-10 7 -6 -4 -9 -1 -8 7 2 7 -3 12 -9 11 -7 -2 -13 5 -14 15 0 14 -2 14 -9 -3
-8 -19 -9 -19 -9 4 -1 17 -5 21 -17 17 -8 -3 -12 -2 -9 3 3 5 -5 11 -17 13
-12 2 -28 13 -34 25 -6 13 -14 20 -17 16 -4 -3 -7 5 -8 18 l-1 24 -8 -25 c-7
-23 -8 -24 -9 -3 -1 12 -11 29 -23 37 -12 9 -18 16 -13 16 5 0 -1 7 -13 16
-12 8 -26 12 -32 9 -6 -3 -7 1 -4 9 4 11 0 16 -11 16 -12 0 -15 5 -10 20 4 12
2 20 -5 20 -6 0 -8 -4 -5 -10 3 -5 1 -10 -4 -10 -6 0 -11 7 -11 15 0 9 -7 18
-15 21 -8 4 -12 10 -9 15 3 5 -5 9 -16 9 -16 0 -20 4 -16 16 4 10 2 13 -6 8
-7 -5 -9 -2 -5 9 4 12 2 14 -10 10 -11 -4 -14 -2 -9 5 4 7 2 12 -4 12 -6 0 -8
5 -5 10 3 6 -4 10 -17 10 -17 0 -19 3 -9 9 11 7 10 12 -8 22 -11 8 -21 20 -21
27 0 8 -5 10 -12 6 -8 -5 -9 -2 -5 10 4 10 1 19 -8 22 -8 4 -13 10 -10 14 3 4
-1 13 -8 19 -10 8 -14 7 -14 -4 0 -8 5 -11 10 -8 6 3 7 1 3 -6 -12 -19 -25 -3
-20 25 4 21 1 25 -10 21 -9 -4 -18 -1 -22 5 -4 7 -3 8 4 4 7 -4 12 -2 12 3 0
6 -6 11 -14 11 -10 0 -12 7 -8 22 4 17 2 20 -12 15 -10 -4 -15 -3 -11 3 3 6 1
10 -5 10 -7 0 -8 6 0 19 11 21 4 30 -20 26 -12 -2 -15 5 -14 25 2 23 -1 27
-20 23 -12 -3 -17 -1 -11 4 14 11 18 36 5 28 -6 -3 -10 4 -10 17 0 19 -2 20
-11 8 -9 -12 -10 -11 -6 7 4 17 1 21 -14 18 -10 -2 -22 1 -25 7 -4 6 -3 8 3 5
5 -3 10 0 10 8 0 18 -3 19 -12 5z m395 -550 c0 -5 -5 -10 -11 -10 -5 0 -7 5
-4 10 3 6 8 10 11 10 2 0 4 -4 4 -10z m88 -95 c-3 -3 -9 2 -12 12 -6 14 -5 15
5 6 7 -7 10 -15 7 -18z m-108 -101 c0 -3 -7 -1 -15 6 -8 7 -15 17 -15 22 0 5
7 3 15 -6 8 -8 15 -18 15 -22z m504 -162 c3 -5 -1 -9 -9 -9 -8 0 -12 4 -9 9 3
4 7 8 9 8 2 0 6 -4 9 -8z"/>
<path d="M1990 1721 c0 -6 4 -13 10 -16 6 -3 7 1 4 9 -7 18 -14 21 -14 7z"/>
<path d="M820 1496 c0 -2 8 -10 18 -17 15 -13 16 -12 3 4 -13 16 -21 21 -21
13z"/>
<path d="M1300 1470 c-9 -6 -10 -10 -3 -10 6 0 15 5 18 10 8 12 4 12 -15 0z"/>
<path d="M1027 1319 c7 -7 15 -10 18 -7 3 3 -2 9 -12 12 -14 6 -15 5 -6 -5z"/>
<path d="M1090 1279 c0 -5 5 -7 10 -4 6 3 10 8 10 11 0 2 -4 4 -10 4 -5 0 -10
-5 -10 -11z"/>
<path d="M930 1216 c0 -2 8 -10 18 -17 15 -13 16 -12 3 4 -13 16 -21 21 -21
13z"/>
<path d="M4645 1181 c-3 -5 -2 -12 3 -15 5 -3 9 1 9 9 0 17 -3 19 -12 6z"/>
<path d="M700 1101 c0 -6 4 -13 10 -16 6 -3 7 1 4 9 -7 18 -14 21 -14 7z"/>
<path d="M1023 867 c0 -8 6 -14 14 -14 9 0 10 4 2 14 -6 7 -12 13 -14 13 -1 0
-2 -6 -2 -13z"/>
<path d="M2365 540 c10 -11 20 -20 23 -20 3 0 -3 9 -13 20 -10 11 -20 20 -23
20 -3 0 3 -9 13 -20z"/>
<path d="M2485 431 c-3 -5 -2 -12 3 -15 5 -3 9 1 9 9 0 17 -3 19 -12 6z"/>
<path d="M3955 407 c-15 -12 -16 -15 -4 -22 8 -5 10 -4 6 0 -4 5 3 15 15 22
13 7 18 12 12 13 -5 0 -18 -6 -29 -13z"/>
<path d="M2710 276 c0 -2 7 -7 16 -10 8 -3 12 -2 9 4 -6 10 -25 14 -25 6z"/>
</g>
</svg>
